<svg width="67" height="64" viewBox="0 0 67 64" fill="none" xmlns="http://www.w3.org/2000/svg">
<path d="M45.5895 42.152C45.5895 38.9423 36.4724 36.3425 25.2259 36.3425M45.5895 42.152C45.5895 45.3618 36.4724 47.9615 25.2259 47.9615C13.9793 47.9615 4.86222 45.3618 4.86222 42.152M45.5895 42.152V56.4928C45.5895 59.8014 36.4724 62.4853 25.2259 62.4853C13.9793 62.4853 4.86222 59.8043 4.86222 56.4928V42.152M45.5895 42.152C56.7139 42.152 65.9531 39.285 65.9531 36.3425V7.29488M25.2259 36.3425C13.9793 36.3425 4.86222 38.9423 4.86222 42.152M25.2259 36.3425C12.3735 36.3425 1.95312 33.4755 1.95312 30.533V16.0092M25.2259 10.1996C12.3735 10.1996 1.95312 12.7994 1.95312 16.0092M1.95312 16.0092C1.95312 19.2189 12.3735 21.8187 25.2259 21.8187C25.2259 24.7612 34.6891 27.6282 45.8135 27.6282C56.9349 27.6282 65.9531 24.7612 65.9531 21.8187M65.9531 7.29488C65.9531 4.08511 56.9349 1.48535 45.8135 1.48535C34.6891 1.48535 25.6739 4.08511 25.6739 7.29488M65.9531 7.29488C65.9531 10.5046 56.9349 13.1044 45.8135 13.1044C34.692 13.1044 25.6739 10.5046 25.6739 7.29488M25.6739 7.29488V36.8247" stroke="black" stroke-width="2"/>
</svg>
