<svg width="62" height="62" viewBox="0 0 62 62" fill="none" xmlns="http://www.w3.org/2000/svg">
<path d="M28.7424 5.14434L28.742 5.14479L3.51819 32.1433C3.29157 32.3751 3.00386 32.4905 2.71971 32.488C2.43336 32.4855 2.14462 32.3632 1.92018 32.1232C1.69368 31.881 1.55449 31.5398 1.55132 31.1701C1.54818 30.8032 1.67952 30.4611 1.89951 30.2141L27.1229 3.21604L26.3975 2.53835L27.1229 3.21604C27.6401 2.66249 28.2503 2.22731 28.9168 1.93179C29.5832 1.63636 30.2947 1.48535 31.0115 1.48535C31.7282 1.48535 32.4398 1.63636 33.1061 1.93179C33.7726 2.22731 34.3829 2.66249 34.9 3.21604L60.1275 30.2216L60.1395 30.2345L60.152 30.2469C60.2708 30.3654 60.3697 30.5119 60.4396 30.6798C60.5095 30.8478 60.548 31.0315 60.5511 31.2195C60.5542 31.4075 60.5218 31.5928 60.4572 31.764C60.3926 31.935 60.2982 32.0859 60.1828 32.2095C60.0675 32.3329 59.934 32.4261 59.7924 32.4873C59.651 32.5485 59.5023 32.5775 59.3542 32.5747C59.2061 32.5719 59.058 32.5372 58.9179 32.4705C58.7777 32.4036 58.6467 32.3049 58.5349 32.1764L58.5233 32.1632L58.5113 32.1503L33.281 5.14479L33.2805 5.14434C32.6908 4.51388 31.8763 4.14584 31.0115 4.14584C30.1467 4.14584 29.3321 4.51388 28.7424 5.14434Z" stroke="black" stroke-width="2"/>
<path d="M8.05908 36.8074L31.0091 12.2366L53.9648 36.8074V55.6587C53.9648 58.388 51.9108 60.4855 49.521 60.4855H39.7221C39.4326 60.4855 39.14 60.3631 38.9131 60.1202C38.684 59.875 38.5446 59.5288 38.5446 59.1548V45.1703C38.5446 44.3081 38.2252 43.4686 37.6375 42.8396C37.0477 42.2082 36.2326 41.8396 35.367 41.8396H26.6569C25.7914 41.8396 24.9763 42.2082 24.3864 42.8396C23.7987 43.4686 23.4794 44.3081 23.4794 45.1703V59.1548C23.4794 59.5288 23.3399 59.875 23.1109 60.1202C22.884 60.3631 22.5913 60.4855 22.3018 60.4855H12.5029C11.3471 60.4855 10.2237 59.9947 9.38426 59.0962C8.54266 58.1954 8.05908 56.96 8.05908 55.6587V36.8074Z" stroke="black" stroke-width="2"/>
</svg>
