<svg width="54" height="62" viewBox="0 0 54 62" fill="none" xmlns="http://www.w3.org/2000/svg">
<path d="M49.308 13.9024L45.0273 18.0727M45.0273 18.0727C40.2451 13.4138 33.7591 10.7965 26.9961 10.7965C20.2331 10.7965 13.747 13.4138 8.96487 18.0727C4.18269 22.7316 1.49609 29.0503 1.49609 35.639C1.49609 42.2276 4.18269 48.5464 8.96487 53.2052C13.747 57.8641 20.2331 60.4814 26.9961 60.4814C33.7591 60.4814 40.2451 57.8641 45.0273 53.2052C49.8095 48.5464 52.4961 42.2276 52.4961 35.639C52.4961 29.0503 49.8095 22.7316 45.0273 18.0727ZM26.9961 23.2181V35.639M17.4338 1.48145H36.5583" stroke="black" stroke-width="2" stroke-linecap="round" stroke-linejoin="round"/>
</svg>
