<svg width="27" height="29" viewBox="0 0 27 29" fill="none" xmlns="http://www.w3.org/2000/svg">
<path d="M4.30071 12.0552H1.90039C1.90039 5.27699 1.90039 1.00977 13.902 1.00977C25.9036 1.00977 25.9036 5.27699 25.9036 12.0552H23.5033M23.5033 9.60067C23.5033 10.9568 19.2043 12.0552 13.902 12.0552C8.59968 12.0552 4.30071 10.9568 4.30071 9.60067M23.5033 9.60067C23.5033 8.24454 19.2043 7.14613 13.902 7.14613C8.59968 7.14613 4.30071 8.24454 4.30071 9.60067M23.5033 9.60067V24.3279C23.5033 26.3615 19.2043 28.0098 13.902 28.0098C8.59968 28.0098 4.30071 26.3615 4.30071 24.3279V9.60067M23.5033 9.60067C23.5033 13.2825 21.1029 12.0552 21.1029 14.5098V16.3507C21.1029 16.8389 20.9133 17.3072 20.5757 17.6524C20.2381 17.9976 19.7802 18.1916 19.3027 18.1916C18.8253 18.1916 18.3674 17.9976 18.0297 17.6524C17.6921 17.3072 17.5025 16.8389 17.5025 16.3507V15.737C17.5025 15.4115 17.376 15.0994 17.1509 14.8692C16.9259 14.6391 16.6206 14.5098 16.3023 14.5098C15.984 14.5098 15.6787 14.6391 15.4537 14.8692C15.2286 15.0994 15.1021 15.4115 15.1021 15.737V20.6461C15.1021 21.4599 14.786 22.2403 14.2234 22.8157C13.6607 23.3911 12.8975 23.7143 12.1017 23.7143C11.306 23.7143 10.5428 23.3911 9.98015 22.8157C9.41746 22.2403 9.10135 21.4599 9.10135 20.6461V15.737C9.10135 15.4115 8.9749 15.0994 8.74983 14.8692C8.52476 14.6391 8.21949 14.5098 7.90119 14.5098C6.10095 14.5098 4.30071 13.2825 4.30071 9.60067" stroke="black" stroke-width="2"/>
</svg>
