<svg width="77" height="55" viewBox="0 0 77 55" fill="none" xmlns="http://www.w3.org/2000/svg">
<path fill-rule="evenodd" clip-rule="evenodd" d="M7.28959 0.899628C3.76314 1.43886 0.980128 4.22486 0.454913 7.7417C0.376688 8.2656 0.368164 10.2351 0.368164 27.815C0.368164 45.395 0.376688 47.3645 0.454913 47.8884C0.983656 51.4291 3.77405 54.2051 7.33324 54.7311C7.86285 54.8093 10.7498 54.8174 38.3682 54.8174C65.9865 54.8174 68.8735 54.8093 69.4031 54.7311C72.9623 54.2051 75.7527 51.4291 76.2814 47.8884C76.3596 47.3645 76.3682 45.395 76.3682 27.815C76.3682 10.2351 76.3596 8.2656 76.2814 7.7417C75.7527 4.20093 72.9623 1.42499 69.4031 0.89898C68.8731 0.820673 66.0009 0.813222 38.2987 0.818838C12.6085 0.823969 7.70086 0.836767 7.28959 0.899628ZM7.93619 6.29329C6.91084 6.51525 6.09433 7.33656 5.8748 8.36675C5.76058 8.90296 5.76058 46.7271 5.8748 47.2633C6.09699 48.3061 6.91328 49.1182 7.96154 49.3393C8.50157 49.4531 68.2347 49.4531 68.7748 49.3393C69.823 49.1182 70.6393 48.3061 70.8615 47.2633C70.9757 46.7271 70.9757 8.90296 70.8615 8.36675C70.6393 7.32392 69.823 6.51185 68.7748 6.29081C68.2527 6.18075 8.44496 6.18318 7.93619 6.29329ZM46.7202 18.0444C42.4045 18.2908 39.6716 20.5437 39.6711 23.8553C39.6708 25.8844 40.4919 27.3451 42.2794 28.4955C42.4844 28.6275 43.1845 29.0097 43.8352 29.3449C45.1976 30.0468 45.5007 30.231 45.9163 30.6097C46.3363 30.9923 46.5305 31.3959 46.5333 31.8924C46.5359 32.3321 46.426 32.585 46.0949 32.9014C45.6007 33.3735 44.8599 33.5899 43.5912 33.6329C41.9972 33.6868 40.6236 33.4466 39.1387 32.8543C38.8011 32.7197 38.5174 32.6183 38.5082 32.629C38.4743 32.6683 37.6534 36.5188 37.6744 36.5397C37.74 36.605 38.4654 36.8975 38.9175 37.0411C40.7049 37.6086 43.1901 37.7709 44.801 37.4251C45.9389 37.1809 47.3844 36.5844 48.3244 35.971C50.4026 34.6149 51.5596 32.818 51.5596 30.9463C51.5596 29.5464 50.9843 28.3995 49.8034 27.4455C49.105 26.8812 48.8137 26.7077 46.6196 25.5483C45.1623 24.7783 44.7005 24.3431 44.6981 23.7377C44.6955 23.0581 45.0268 22.5635 45.6877 22.2604C46.3076 21.9762 46.7365 21.9045 47.8139 21.9051C48.6978 21.9055 48.7979 21.916 49.2524 22.0553C49.8482 22.2379 50.6011 22.5615 51.0856 22.8432C51.3931 23.022 51.4507 23.0398 51.4733 22.9634C51.4997 22.8742 52.2653 18.9776 52.2653 18.9324C52.2653 18.9195 52.0271 18.8359 51.736 18.7468C50.1424 18.2586 49.2888 18.1015 47.7867 18.0199C47.6076 18.0101 47.1277 18.0212 46.7202 18.0444ZM25.0246 19.1608C24.8745 19.5989 23.857 22.5687 22.7636 25.7603C21.6703 28.9519 20.7673 31.5716 20.757 31.5818C20.7327 31.606 20.7078 31.4972 20.537 30.6233C20.3824 29.8321 20.1942 29.3558 19.6512 28.3821C18.5101 26.3359 17.0831 24.5879 15.4596 23.2477C14.7093 22.6283 13.6948 21.938 13.6298 22.0027C13.6109 22.0215 14.4874 25.4086 15.5775 29.5298L17.5595 37.0228L20.3036 37.0368C22.4691 37.0479 23.0534 37.0365 23.0751 36.9828C23.0903 36.9454 24.7813 32.7835 26.8329 27.734C28.8845 22.6846 30.5755 18.5107 30.5905 18.4587C30.6164 18.3696 30.4656 18.3642 27.9578 18.3642H25.2976L25.0246 19.1608ZM32.5916 18.4104C32.5758 18.4358 31.9142 22.5611 31.1215 27.5777C30.3287 32.5943 29.6657 36.7778 29.6481 36.8743L29.6161 37.0498H32.1193C33.496 37.0498 34.6224 37.0341 34.6224 37.0149C34.6224 36.9958 35.2942 32.8165 36.1153 27.7277C36.9364 22.6388 37.6082 18.4503 37.6082 18.4197C37.6082 18.3509 32.6343 18.3416 32.5916 18.4104ZM59.5439 18.4857C59.5179 18.5525 57.6959 22.7143 55.4952 27.734C53.2944 32.7538 51.4813 36.9034 51.4661 36.9553C51.4399 37.0443 51.5816 37.0498 53.9072 37.0498H56.3761L56.8818 35.7267L57.3875 34.4036H60.4956C63.409 34.4036 63.6054 34.4095 63.6312 34.4981C63.6463 34.5501 63.7594 35.103 63.8824 35.7267C64.0055 36.3505 64.1186 36.9034 64.1337 36.9553C64.1593 37.0434 64.3149 37.0498 66.4104 37.0498C68.3057 37.0498 68.6596 37.0379 68.6596 36.974C68.6596 36.8888 64.8732 18.5374 64.8339 18.4317C64.8142 18.379 64.2374 18.3642 62.2 18.3642H59.5912L59.5439 18.4857ZM8.21245 18.4742C8.27216 18.5009 8.72626 18.6804 9.22151 18.8731C12.3424 20.0872 15.1387 21.8605 17.1185 23.8811C18.4229 25.2124 19.372 26.6586 19.966 28.2201C20.0564 28.4577 20.1176 28.5792 20.1021 28.4901C20.0865 28.401 19.72 26.5297 19.2878 24.3317C18.6569 21.1238 18.4731 20.2787 18.3564 20.0482C18.1316 19.6043 17.5406 19.0095 17.0903 18.7742C16.4115 18.4192 16.4193 18.4198 12.0396 18.4228C9.65987 18.4244 8.14682 18.4447 8.21245 18.4742ZM60.4766 26.3939C59.9321 27.8142 59.3299 29.3832 59.1385 29.8807L58.7906 30.7853H60.8359H62.8813L62.1905 27.3695C61.8107 25.4908 61.4924 23.9218 61.4833 23.8827C61.4742 23.8437 61.0212 24.9738 60.4766 26.3939Z" fill="#323232"/>
</svg>
