<svg width="103" height="102" viewBox="0 0 103 102" fill="none" xmlns="http://www.w3.org/2000/svg">
<g clip-path="url(#clip0_276_217)">
<path fill-rule="evenodd" clip-rule="evenodd" d="M0.641113 0.505859H102.641V101.506H0.641113V0.505859Z" fill="white"/>
<path fill-rule="evenodd" clip-rule="evenodd" d="M98.1411 51.0065C98.1411 35.9526 85.8163 23.7486 70.6139 23.7486C64.0167 23.7486 58.0139 26.0347 53.2731 29.8665C56.8894 33.3238 59.6501 37.6523 61.1312 42.5453H58.8441C57.4106 38.1952 54.8928 34.357 51.62 31.2771C48.3252 34.384 45.8593 38.2509 44.4429 42.5322H42.1553C43.616 37.7289 46.2931 33.3754 49.9319 29.8854C45.2028 26.0929 39.2285 23.748 32.6684 23.748C17.466 23.748 5.14062 35.952 5.14062 51.0059C5.14062 66.0593 17.4654 78.2633 32.6684 78.2633C39.2279 78.2633 45.2028 75.9185 49.9319 72.1259C46.3436 68.6792 43.6301 64.3449 42.1553 59.4797H44.4429C45.8595 63.7609 48.3253 67.6278 51.62 70.7348C54.8934 67.6543 57.4106 63.8167 58.8441 59.4661H61.1312C59.6501 64.359 56.8894 68.6881 53.2731 72.1448C58.0139 75.9761 64.0167 78.2628 70.6139 78.2628C85.8163 78.2633 98.1411 66.0593 98.1411 51.0065Z" fill="#323232"/>
<path fill-rule="evenodd" clip-rule="evenodd" d="M77.9101 57.3913L79.8108 47.3057H82.2138L82.4651 48.2997C82.8959 47.802 83.7208 47.3057 85.1194 47.3057L84.367 49.933C83.6849 49.933 82.3937 49.7564 81.5692 52.7745L80.7083 57.3913H77.9101ZM41.0774 44.7424H43.8471L43.2788 47.4147H44.7694L44.2731 49.5945H42.8528L42.0712 53.6726C41.9289 54.4465 42.0003 55.1502 43.5984 54.904L43.4206 56.9428C42.8168 57.3295 42.0003 57.4358 41.3605 57.4358C40.7218 57.4358 38.6263 57.0481 39.1597 54.3061L41.0774 44.7424ZM53.0795 52.8997C53.3991 51.2817 54.1452 47.2743 49.2806 47.2743C44.8059 47.2743 44.2381 51.6689 44.1318 52.3014C44.0254 52.9348 43.9545 57.3997 48.7477 57.3997C49.9198 57.4353 51.6242 57.2943 52.2995 56.9422L52.7254 54.8689C52.2995 54.9731 50.7009 55.1146 49.5997 55.1146C48.4995 55.1146 46.7242 55.1853 47.0433 52.8997H53.0795ZM38.4506 49.6652L39.0894 47.6254C37.7754 47.1334 36.7462 47.2392 36.3552 47.2392C35.9641 47.2392 32.6393 47.1989 32.1298 49.6301C31.7392 51.4939 32.4282 52.2647 33.0886 52.5481C34.1543 53.0056 34.7581 53.4274 35.3265 53.7088C36.0292 54.0567 35.9001 55.2204 34.9709 55.2204C34.5443 55.2204 32.6986 55.4311 31.3138 54.9736L30.9233 57.0481C32.2017 57.4002 33.2304 57.4002 34.1903 57.4002C34.8645 57.4002 38.167 57.5762 38.6279 54.5518C38.8533 53.0774 38.2019 52.4067 37.6691 52.0918C37.1367 51.7396 36.2488 51.2476 35.681 51.0008C35.1127 50.7551 34.6867 49.8062 35.7164 49.5248C36.3552 49.4541 37.6685 49.4541 38.4506 49.6652ZM20.4833 57.3997L22.791 45.2345H18.2465L14.8726 52.6184L14.3397 45.2345H9.90159L7.52246 57.3997H10.2916L11.996 48.6099L12.7422 57.3997H15.3695L19.2403 48.8211L17.6068 57.3997H20.4833ZM23.5361 47.5908L23.1101 49.7705C23.7853 49.7008 25.5961 49.4195 26.5545 49.4541C27.5138 49.4892 28.5785 49.3487 28.2589 50.8604C27.5488 50.9312 22.5778 50.1572 21.7973 54.3758C21.4776 56.4513 23.2879 57.5055 24.7082 57.4358C26.1285 57.3651 26.519 57.189 27.0164 56.8369L27.3715 57.3997H29.9628L31.064 51.9152C31.3482 50.5439 31.8091 47.2387 27.1582 47.2387C26.3063 47.2743 25.348 47.2387 23.5361 47.5908ZM68.4189 48.0472C67.7077 47.6248 67.2119 47.5552 66.288 47.5552C65.3651 47.5552 63.3051 48.4286 62.9156 50.8955C62.4536 53.8136 64.4772 55.2545 67.3183 54.3061L68.1348 56.7672C67.2119 57.189 66.288 57.3997 64.7613 57.3997C61.8848 57.3997 58.7606 54.8689 60.1809 49.7349C61.2281 45.9523 64.5137 44.5669 66.4309 44.6371C68.7026 44.721 69.5201 45.4807 70.2303 46.2546L68.4189 48.0472ZM92.0319 48.469C91.4985 48.0828 91.1805 47.2743 89.8655 47.2743C88.3389 47.2743 85.9597 46.9929 84.6109 51.5636C83.7087 54.6184 85.5338 57.4002 87.5213 57.4002C88.4452 57.3656 89.3681 56.9784 89.9354 56.5917L90.292 57.4002H93.2739L95.689 44.6025H92.7765L92.0319 48.469ZM70.4075 47.5908L69.9805 49.7705C70.6562 49.7008 72.466 49.4195 73.4254 49.4541C74.3842 49.4892 75.45 49.3487 75.1298 50.8604C74.4197 50.9312 69.4487 50.1572 68.6682 54.3758C68.348 56.4513 70.1583 57.5055 71.5786 57.4358C72.9999 57.3651 73.3894 57.189 73.8873 56.8369L74.2429 57.3997H76.8337L77.9355 51.9152C78.2196 50.5439 78.6805 47.2387 74.0286 47.2387C73.1772 47.2743 72.2183 47.2387 70.4075 47.5908Z" fill="white"/>
<path fill-rule="evenodd" clip-rule="evenodd" d="M47.2202 51.0709H50.6646C50.8424 50.0863 50.5228 49.2422 49.4221 49.2422C48.3209 49.2422 47.5399 49.8049 47.2202 51.0709ZM27.7977 52.899C27.3358 52.8272 26.306 52.5469 25.4181 53.1448C24.5301 53.7426 24.2819 54.7964 25.2053 55.1495C26.0938 55.4875 27.4056 54.9038 27.5845 53.9879L27.7977 52.899ZM91.0373 52.582C91.3215 51.6682 91.1665 50.527 90.8595 50.1219C90.0081 48.997 88.0486 49.8862 87.4512 52.0911C87.0606 53.532 87.9131 54.6219 88.8715 54.6219C89.9017 54.6214 90.5405 53.8129 91.0373 52.582ZM74.6686 52.899C74.2067 52.8272 73.1774 52.5469 72.2895 53.1448C71.4016 53.7426 71.1528 54.7964 72.0768 55.1495C72.9658 55.4875 74.2771 54.9038 74.4548 53.9879L74.6686 52.899Z" fill="#323232"/>
<path fill-rule="evenodd" clip-rule="evenodd" d="M53.1587 57.399L55.0409 47.4141H57.4201L57.6682 48.3986C58.0953 47.9061 58.9118 47.4141 60.2956 47.4141L59.5854 50.0512C58.9118 50.0512 57.5968 49.8406 56.7803 52.8278L55.9289 57.3995L53.1587 57.399Z" fill="white"/>
</g>
<defs>
<clipPath id="clip0_276_217">
<rect width="102" height="101" fill="white" transform="translate(0.641113 0.505859)"/>
</clipPath>
</defs>
</svg>
