<svg width="109" height="55" viewBox="0 0 109 55" fill="none" xmlns="http://www.w3.org/2000/svg">
<path d="M19.2942 0.453364C19.4242 0.464764 19.6392 0.464764 19.7749 0.453364C19.905 0.441963 19.7975 0.430562 19.5317 0.430562C19.2659 0.430562 19.1584 0.441963 19.2942 0.453364Z" fill="#323232"/>
<path d="M19.3394 0.662968C19.3224 0.725155 19.3055 5.91514 19.3055 12.185C19.3055 18.4604 19.2942 23.5939 19.2829 23.5939C19.2716 23.5939 15.6791 21.4003 11.3072 18.7205C6.92957 16.0464 2.77225 13.5022 2.06618 13.0726L0.77832 12.2924V27.5288C0.77832 35.9074 0.795266 42.7539 0.823509 42.7426C0.846103 42.7256 1.47309 42.3468 2.21869 41.9002C2.9643 41.4479 4.59108 40.4585 5.83375 39.6953C8.96304 37.7731 11.4936 36.224 14.5042 34.3922C15.9164 33.5329 17.577 32.5152 18.1927 32.1421C18.8028 31.7633 19.3168 31.4524 19.3337 31.4524C19.3507 31.4524 19.362 36.6141 19.362 42.9178C19.362 49.2272 19.3789 54.4059 19.3959 54.4229C19.4185 54.4398 19.4862 54.4285 19.554 54.3946C19.7348 54.2985 28.2245 49.1198 33.2856 46.0216C37.7762 43.2684 39.482 42.2224 42.3515 40.4698C44.2776 39.2939 44.5544 39.1186 44.5544 39.0847C44.5488 39.0677 42.9446 38.0784 40.9789 36.8855C37.8553 34.9802 34.613 33.0014 27.75 28.7952C26.1063 27.7888 25.9425 27.6758 25.9425 27.5344C25.9425 27.3988 26.2023 27.2235 29.1622 25.42C40.7247 18.3643 44.6052 15.9842 44.6109 15.9616C44.6109 15.9446 44.5036 15.8654 44.3737 15.7863C44.2381 15.7071 42.5435 14.6669 40.6004 13.474C38.6573 12.2811 34.8615 9.95745 32.1559 8.31226C29.4559 6.66707 26.2645 4.71658 25.067 3.98727C23.8695 3.25231 22.1015 2.17813 21.13 1.59581C19.5201 0.629044 19.3676 0.549896 19.3394 0.662968ZM26.4904 12.609C27.7896 13.4005 31.0714 15.3849 31.495 15.6336C31.7492 15.7863 31.9582 15.9276 31.9582 15.9502C31.9582 16.0068 31.0488 16.5721 27.2078 18.9014L25.9143 19.6873V15.9898C25.9143 13.9545 25.9256 12.2867 25.9425 12.2867C25.9538 12.2867 26.2023 12.4281 26.4904 12.609ZM8.60153 24.832C9.16074 25.1769 10.3865 25.9232 11.3241 26.4885C12.2674 27.0595 13.0356 27.5344 13.03 27.5514C13.03 27.5797 7.53961 30.9549 7.44358 30.9888C7.40404 31.0001 7.3871 29.7733 7.3871 27.5514C7.3871 24.278 7.39275 24.1027 7.48877 24.1536C7.53961 24.1819 8.04233 24.4872 8.60153 24.832ZM28.2641 36.8515C31.3256 38.7172 31.7492 38.9829 31.8339 39.0564C31.8904 39.1073 31.5684 39.3278 30.3935 40.0571C29.021 40.9052 26.2984 42.5617 26.0216 42.703C25.9143 42.7652 25.9143 42.7087 25.9143 39.1073C25.9143 36.0996 25.9256 35.4608 25.9877 35.4834C26.0329 35.5003 27.0553 36.1166 28.2641 36.8515Z" fill="#323232"/>
<path d="M76.1582 10.1444C72.8877 10.201 72.3397 10.2292 71.7805 10.3593C69.2387 10.9416 67.2222 12.6094 66.019 15.1309C65.2791 16.68 64.9854 18.0764 64.9854 20.0608C64.9797 24.5271 66.7025 27.4444 69.973 28.5016C70.713 28.7447 71.2722 28.8465 72.1308 28.903C75.051 29.0952 77.6889 28.1115 79.1575 26.2797C79.824 25.4543 80.2816 24.3801 80.4228 23.3229C80.5075 22.6954 80.468 21.429 80.3381 20.8523C79.7845 18.3139 78.1125 16.7308 75.5086 16.2673C74.7912 16.1372 73.396 16.1372 72.7238 16.2673C71.741 16.4538 70.7356 16.8948 69.973 17.4715C69.5211 17.8107 69.5042 17.7937 69.6962 17.1718C70.1142 15.7924 71.21 14.7182 72.6843 14.232L73.1644 14.0737L75.6837 14.0511L78.1973 14.0341L78.7 13.1182C79.632 11.4052 80.3098 10.1501 80.3098 10.1162C80.3098 10.0766 79.5077 10.0822 76.1582 10.1444ZM73.3678 19.7159C74.4975 19.9195 75.2431 20.6431 75.4803 21.7569C75.8136 23.3512 74.9889 24.8324 73.5598 25.2056C72.8877 25.3808 72.0517 25.2904 71.4303 24.9738C71.0575 24.7815 70.5887 24.318 70.3967 23.9392C69.7075 22.5767 70.0408 20.8975 71.1479 20.1343C71.4642 19.9138 71.9387 19.7499 72.4019 19.6933C72.9215 19.6311 72.8933 19.6311 73.3678 19.7159Z" fill="#323232"/>
<path d="M57.58 14.61C55.3262 14.8249 53.2023 15.8256 51.9484 17.2785C51.1689 18.1831 50.6379 19.1951 50.395 20.258C50.2595 20.8516 50.2312 22.3328 50.3385 22.9717C50.5927 24.4416 51.1858 25.6006 52.1856 26.59C54.3377 28.727 58.0092 29.4281 61.3193 28.3369C61.8898 28.1504 62.8783 27.715 62.9348 27.6189C62.9517 27.5907 62.6354 26.9575 62.2287 26.2168C61.2176 24.3738 61.195 24.3285 61.1442 24.3285C61.1216 24.3285 61.0086 24.3738 60.89 24.436C60.585 24.5886 59.8507 24.8204 59.2689 24.9504C57.6986 25.2953 56.1848 24.86 55.3092 23.8141C54.6992 23.0848 54.4676 21.9597 54.7162 20.976C54.8913 20.3088 55.0946 19.9414 55.5408 19.4947C56.2356 18.7993 56.9473 18.5393 58.1674 18.5336C59.0542 18.5336 59.4779 18.6297 60.5115 19.0537C60.8505 19.1951 61.1781 19.3138 61.2289 19.3195C61.3023 19.3251 61.5791 18.8785 62.2626 17.663C62.7766 16.7471 63.1889 15.9669 63.172 15.9273C63.0986 15.7351 61.7881 15.0962 61.0199 14.8814C60.0935 14.6213 58.6475 14.5083 57.58 14.61Z" fill="#323232"/>
<path d="M83.7158 14.9269L82.6821 14.9439V21.6717V28.3994H85.0828H87.4834V23.6787V18.9579H89.7428H92.0022V23.6787V28.3994H94.3746H96.747V21.6717V14.9439H94.9281C93.9227 14.9439 91.2227 14.9326 88.9238 14.9213C86.6248 14.91 84.2807 14.9156 83.7158 14.9269Z" fill="#323232"/>
<path d="M83.1 32.72C82.9927 32.7935 82.7159 32.884 82.4279 32.9462C81.5128 33.1214 81.0666 33.438 80.7333 34.1278C80.4904 34.6253 80.4057 35.1454 80.4339 35.9934C80.4509 36.5871 80.4735 36.7284 80.5977 36.9941C80.8011 37.4295 81.0496 37.6952 81.4281 37.8817C81.6992 38.0174 81.8178 38.04 82.2019 38.04C82.7329 38.0344 83.0435 37.9157 83.4163 37.5821C84.0659 36.9941 84.1732 35.8691 83.6479 35.1454C83.1452 34.45 81.9251 34.4048 81.2586 35.0549L81.0496 35.2585L81.1287 34.908C81.2699 34.3143 81.5128 33.9582 81.9195 33.7546C82.0155 33.7094 82.3036 33.6246 82.5691 33.5737C83.0661 33.4719 83.5689 33.2571 83.6197 33.1271C83.6479 33.0536 83.3655 32.5843 83.3034 32.59C83.2864 32.59 83.1961 32.6522 83.1 32.72ZM82.5973 35.2472C83.3147 35.4507 83.535 36.4966 82.9871 37.1072C82.49 37.6556 81.6032 37.5312 81.2643 36.8641C81.0892 36.5249 81.0609 35.9991 81.2078 35.773C81.4958 35.3094 82.0607 35.1002 82.5973 35.2472Z" fill="#323232"/>
<path d="M53.1066 34.5214C52.5813 34.6571 52.169 35.0019 51.943 35.4938C51.7566 35.8952 51.7566 36.681 51.943 37.0542C52.1181 37.4103 52.4288 37.7156 52.8016 37.8909C53.4229 38.1792 54.3888 38.0492 54.8068 37.6139L54.9593 37.4556L54.8238 37.252C54.7503 37.139 54.6713 37.0485 54.6487 37.0485C54.6204 37.0485 54.5188 37.1107 54.4227 37.1842C54.0273 37.4782 53.5585 37.5178 53.101 37.3086C52.4006 36.9807 52.2537 35.997 52.8242 35.4316C53.2196 35.0302 53.7844 34.968 54.3154 35.2676C54.5922 35.4259 54.5865 35.4259 54.7729 35.115L54.8972 34.9058L54.7673 34.821C54.2985 34.5157 53.6206 34.3913 53.1066 34.5214Z" fill="#323232"/>
<path d="M61.0765 34.5009C60.602 34.6253 60.1558 34.9928 59.9129 35.4677C59.7999 35.6825 59.7773 35.8069 59.7773 36.2592C59.7773 36.7114 59.7999 36.8415 59.9129 37.0733C60.0937 37.4351 60.3761 37.7121 60.7602 37.893C61.0313 38.0174 61.1499 38.04 61.5849 38.04C62.0198 38.0344 62.1328 38.0118 62.3757 37.8874C62.5338 37.8082 62.7202 37.6895 62.7937 37.633L62.9292 37.5199L62.7993 37.2881C62.7259 37.1581 62.6468 37.0507 62.6242 37.0507C62.596 37.0507 62.483 37.1129 62.37 37.192C61.8504 37.5425 61.2573 37.5199 60.8223 37.1298C60.2292 36.5927 60.3309 35.5751 61.02 35.2189C61.3533 35.0436 61.8899 35.0549 62.274 35.2528L62.5677 35.4055L62.7089 35.1511L62.8445 34.9023L62.6863 34.7892C62.596 34.727 62.4322 34.6366 62.3192 34.5857C62.0819 34.4896 61.3194 34.4331 61.0765 34.5009Z" fill="#323232"/>
<path d="M67.9116 34.5005C67.3524 34.6588 67.0361 34.9132 66.7988 35.3938C66.6294 35.7443 66.6124 35.8178 66.6181 36.287C66.6181 36.875 66.731 37.1803 67.0756 37.5252C67.6009 38.0509 68.5668 38.1923 69.3068 37.8531C69.7474 37.6495 69.7643 37.6269 69.657 37.3442C69.6005 37.2142 69.544 37.1124 69.5271 37.1237C69.1147 37.3499 68.8944 37.4121 68.5047 37.4121C68.1432 37.4177 68.0415 37.3951 67.8156 37.2651C67.5727 37.1181 67.3185 36.7563 67.3185 36.5527C67.3185 36.5019 67.6518 36.4849 68.612 36.4849H69.9055L69.9451 36.3096C70.0298 35.9308 69.849 35.3259 69.5497 34.9697C69.2277 34.5853 68.4313 34.3591 67.9116 34.5005ZM68.9283 35.2411C69.0921 35.3429 69.2955 35.6877 69.2955 35.863C69.2955 35.8969 68.917 35.9195 68.307 35.9195C67.5953 35.9195 67.3185 35.9026 67.3185 35.8517C67.3185 35.8178 67.3806 35.6821 67.4597 35.5521C67.584 35.3316 67.7873 35.1902 68.081 35.1111C68.29 35.0545 68.7363 35.1224 68.9283 35.2411Z" fill="#323232"/>
<path d="M76.1298 34.5225C75.9603 34.5621 75.74 34.6412 75.644 34.6921L75.4632 34.7825L75.548 35.037L75.6327 35.2857L75.8925 35.167C76.2427 35.0143 76.7793 35.003 76.9996 35.1444C77.1804 35.2688 77.3159 35.5514 77.3159 35.8285V36.0207L77.0787 35.9359C76.5364 35.7493 75.6892 35.9302 75.4011 36.2921C75.1356 36.6313 75.113 37.2079 75.3559 37.5698C75.5818 37.8977 75.8134 38.0107 76.2653 38.0107C76.6607 38.0107 77.0787 37.8807 77.1691 37.7337C77.2369 37.6263 77.3159 37.6659 77.3159 37.8129C77.3159 37.9486 77.3329 37.9542 77.6266 37.9542H77.9373V36.7217C77.9373 36.0489 77.909 35.4044 77.8808 35.2914C77.7961 34.9917 77.5984 34.726 77.3668 34.6073C77.1013 34.4716 76.5251 34.432 76.1298 34.5225ZM77.2199 36.5465C77.4515 36.6539 77.4346 36.9309 77.1747 37.1571C76.7003 37.5754 76.0507 37.5189 75.9321 37.0496C75.8021 36.5182 76.5308 36.2355 77.2199 36.5465Z" fill="#323232"/>
<path d="M90.6917 34.5277C89.9291 34.7312 89.4434 35.404 89.4434 36.269C89.4434 37.0379 89.8049 37.5919 90.5166 37.9085C90.9402 38.1007 91.6463 38.0894 92.0643 37.8859C92.2337 37.8011 92.4314 37.6711 92.5049 37.5919L92.6348 37.4562L92.4653 37.2244C92.3185 37.0209 92.2902 37.004 92.2224 37.0831C91.9457 37.4167 91.1662 37.5241 90.7199 37.2866C90.3584 37.1001 90.172 36.7778 90.1494 36.3199C90.1212 35.828 90.2793 35.5114 90.6747 35.2683C91.1153 34.9969 91.5672 35.0309 92.2337 35.3927C92.2563 35.404 92.3354 35.2966 92.4145 35.1552L92.5613 34.9008L92.3524 34.7595C91.9287 34.4825 91.2283 34.3863 90.6917 34.5277Z" fill="#323232"/>
<path d="M97.6171 34.6749C97.4364 34.7654 97.2782 34.8445 97.2726 34.8445C97.2613 34.8445 97.2556 34.7823 97.2556 34.7032C97.2556 34.5675 97.2387 34.5619 96.9449 34.5619H96.6343V37.0212V39.4805H96.9449H97.2556V38.689C97.2556 38.2536 97.2726 37.8975 97.2895 37.8975C97.3065 37.8975 97.4646 37.937 97.6397 37.9879C98.3627 38.1971 99.1705 37.9597 99.5772 37.4226C99.8765 37.0268 99.9839 36.6367 99.9556 36.0714C99.8991 35.065 99.3399 34.511 98.3797 34.5053C98.0125 34.5053 97.8995 34.5279 97.6171 34.6749ZM98.7299 35.2177C99.1196 35.4155 99.3569 36.0318 99.2326 36.5293C99.0801 37.1625 98.6565 37.4791 98.0295 37.4339C97.8374 37.4169 97.5832 37.366 97.4703 37.3151L97.2556 37.2247V36.3767V35.5286L97.4533 35.3703C97.5606 35.2855 97.7301 35.1837 97.8318 35.1442C98.0521 35.0594 98.5039 35.0989 98.7299 35.2177Z" fill="#323232"/>
<path d="M100.813 36.2295V37.9538L101.311 37.9651C102.485 37.9821 102.881 37.8747 103.169 37.4393C103.384 37.1171 103.417 36.563 103.254 36.1842C103.062 35.7546 102.519 35.5002 101.83 35.5284C101.689 35.5341 101.542 35.5341 101.508 35.5284C101.457 35.5228 101.435 35.3814 101.435 35.014V34.5051H101.124H100.813V36.2295ZM102.356 36.2521C102.576 36.3369 102.711 36.6478 102.644 36.9136C102.57 37.2245 102.378 37.3319 101.87 37.3715L101.435 37.4054V36.7666V36.1277L101.819 36.1616C102.028 36.1786 102.265 36.2182 102.356 36.2521Z" fill="#323232"/>
<path d="M55.6826 36.258V37.9541H56.0102H56.3322L57.2812 36.7329L58.2245 35.5174V36.7329V37.9541H58.5634H58.9023V36.258V34.562H58.569H58.2414L57.315 35.7549L56.3887 36.9534L56.3717 35.7549L56.3604 34.562H56.0215H55.6826V36.258Z" fill="#323232"/>
<path d="M63.1948 34.8729V35.1838H63.8162H64.4375V36.569V37.9541H64.7482H65.0588V36.569V35.1838H65.6802H66.3015V34.8729V34.562H64.7482H63.1948V34.8729Z" fill="#323232"/>
<path d="M70.707 34.9747C70.707 35.2065 70.724 35.9697 70.7466 36.6707L70.7805 37.9541H71.0798H71.3849L71.3962 36.7555L71.4131 35.557L72.0062 36.3259C72.3338 36.7442 72.6219 37.0778 72.6445 37.0665C72.6727 37.0495 72.9382 36.7047 73.2376 36.2976L73.7855 35.5513L73.8024 36.7555L73.8137 37.9541H74.1244H74.4351V36.258V34.562H74.1357H73.8363L73.2489 35.3535C72.9269 35.7888 72.6445 36.145 72.6219 36.145C72.5936 36.145 72.2999 35.7888 71.9667 35.3591L71.3566 34.5676H71.0346L70.707 34.562V34.9747Z" fill="#323232"/>
<path d="M84.8286 36.258V37.9541H85.5855C86.6248 37.9541 86.9468 37.8297 87.201 37.3322C87.5173 36.7047 87.3027 35.9471 86.7265 35.687C86.5571 35.6079 86.3594 35.5796 85.9753 35.5796H85.45V35.0708V34.562H85.1393H84.8286V36.258ZM86.4046 36.2806C86.6587 36.4163 86.7435 36.7386 86.6023 37.0269C86.478 37.2813 86.2407 37.3774 85.7493 37.3831L85.45 37.3887V36.7612V36.128L85.8397 36.1619C86.0543 36.1789 86.3085 36.2354 86.4046 36.2806Z" fill="#323232"/>
<path d="M87.9922 36.2864V38.0107H88.3029H88.6135V36.2864V34.5621H88.3029H87.9922V36.2864Z" fill="#323232"/>
<path d="M92.8496 34.7429C92.8496 35.1838 92.8496 35.1838 93.5331 35.1838H94.1488V36.569V37.9541H94.4594H94.7701V36.569V35.1838H95.3914H96.0128V34.8729V34.562H94.4312H92.8496V34.7429Z" fill="#323232"/>
<path d="M103.977 36.258V37.9541H104.288H104.598V36.258V34.562H104.288H103.977V36.258Z" fill="#323232"/>
<path d="M105.649 34.9407C105.796 35.1556 106.067 35.5231 106.248 35.7662C106.457 36.0319 106.564 36.2298 106.542 36.275C106.514 36.3089 106.254 36.6707 105.954 37.0778C105.655 37.4792 105.395 37.8467 105.367 37.8806C105.339 37.9371 105.412 37.9541 105.695 37.9541H106.062L106.547 37.3039C106.813 36.9478 107.045 36.6538 107.056 36.6538C107.067 36.6538 107.287 36.9478 107.547 37.3039L108.016 37.9541H108.395C108.609 37.9541 108.779 37.9428 108.779 37.9258C108.779 37.9089 108.496 37.5131 108.157 37.0439L107.53 36.1958L108.005 35.5626C108.265 35.2121 108.53 34.8446 108.604 34.7429L108.728 34.562H108.344H107.96L107.519 35.1895L107.073 35.8114L106.627 35.1838L106.175 34.562H105.774H105.378L105.649 34.9407Z" fill="#323232"/>
<path d="M79.999 39.876C79.9256 39.9891 80.1007 40.4131 80.304 40.6166C80.7107 41.0237 81.5467 41.0576 81.959 40.6844C82.1059 40.5488 82.2697 40.2322 82.2923 40.0173C82.3149 39.8477 82.3092 39.8477 82.0268 39.8308L81.7387 39.8138L81.6427 40.0625C81.445 40.5883 80.835 40.5601 80.6429 40.0173C80.5751 39.8308 80.5582 39.8194 80.304 39.8194C80.1572 39.8194 80.0159 39.8421 79.999 39.876Z" fill="#323232"/>
<path d="M60.6529 41.6068C60.5117 41.6521 60.3535 41.7199 60.2971 41.7651C60.201 41.8386 60.201 41.8556 60.2914 42.0761C60.3423 42.2005 60.3874 42.3079 60.3931 42.3079C60.3987 42.3079 60.5456 42.257 60.7264 42.1948C61.1048 42.0591 61.4268 42.0535 61.6979 42.1609C61.9238 42.257 62.0029 42.387 62.0594 42.7658C62.1046 43.0372 62.0989 43.0485 61.986 43.0146C60.8224 42.681 59.9751 43.1107 59.9751 44.0435C59.9751 44.6824 60.3874 45.0781 61.0427 45.0781C61.3646 45.0781 61.7657 44.9368 61.9634 44.7559C62.0594 44.6711 62.0651 44.6767 62.0651 44.8407V45.0216H62.3757H62.6864V43.7891C62.6864 42.3814 62.6356 42.11 62.3305 41.8104C62.2289 41.7086 62.0538 41.6012 61.9464 41.5729C61.6697 41.4938 60.9523 41.5107 60.6529 41.6068ZM61.8674 43.5573C62.0199 43.6308 62.0368 43.6647 62.0368 43.8909C62.0368 44.1283 62.0255 44.1509 61.76 44.3149C61.2178 44.6485 60.6247 44.4675 60.636 43.9757C60.6416 43.7439 60.7264 43.6195 60.9636 43.5121C61.1669 43.4216 61.6301 43.4442 61.8674 43.5573Z" fill="#323232"/>
<path d="M67.883 41.5672C67.3916 41.7198 67.0019 42.0647 66.7872 42.5283C66.6178 42.9128 66.6234 43.6986 66.7985 44.0944C67.1431 44.8576 67.996 45.259 68.8715 45.0781C69.1822 45.0159 69.5663 44.8576 69.7301 44.7276C69.7753 44.6936 69.7696 44.6145 69.7019 44.4392C69.5889 44.1339 69.6002 44.1452 69.4477 44.247C69.2726 44.3601 68.7529 44.5127 68.5383 44.5127C68.0807 44.5127 67.6063 44.2244 67.4537 43.8512C67.2956 43.4781 67.2391 43.4951 68.7077 43.4951H70.0464L70.0069 43.0597C69.9899 42.8053 69.9221 42.5283 69.8544 42.3813C69.6962 42.0534 69.2895 41.7029 68.9393 41.6011C68.6399 41.5107 68.1203 41.4937 67.883 41.5672ZM68.9393 42.2852C69.1314 42.4322 69.2726 42.6357 69.3178 42.8279L69.3516 42.9862H68.3349H67.3182L67.4029 42.7771C67.5159 42.5113 67.691 42.3191 67.9113 42.2174C68.1598 42.0986 68.7473 42.1439 68.9393 42.2852Z" fill="#323232"/>
<path d="M76.4803 41.6184C76.0454 41.7767 75.7912 42.0029 75.5709 42.4325C75.4071 42.7661 75.3845 42.8622 75.3845 43.2806C75.3788 43.7894 75.4862 44.1286 75.7686 44.4961C76.0736 44.8975 76.791 45.1632 77.4067 45.1067C77.7738 45.0671 78.4234 44.8014 78.4742 44.6657C78.5025 44.5979 78.3613 44.1738 78.3104 44.1738C78.2991 44.1738 78.1523 44.236 77.9885 44.3095C77.5535 44.5074 77.2654 44.5413 76.9039 44.4339C76.4295 44.2926 76.26 44.123 76.1075 43.6198L76.068 43.4954H77.4067H78.7454L78.7171 43.0544C78.6606 42.1103 78.1353 41.5789 77.2033 41.5336C76.8926 41.5167 76.7006 41.5393 76.4803 41.6184ZM77.5987 42.246C77.8077 42.3534 77.9602 42.5682 78.0224 42.8283L78.0619 42.9866H77.0677C76.4916 42.9866 76.0736 42.964 76.0736 42.9357C76.0736 42.6983 76.3447 42.3364 76.6102 42.2177C76.8644 42.1046 77.3671 42.1216 77.5987 42.246Z" fill="#323232"/>
<path d="M52.0446 41.8319C52.0277 41.9789 52.0107 42.7534 52.0107 43.5562V45.0205H52.3497H52.6886V43.6071V42.1937H53.5923H54.4961V43.6071V45.0205H54.8068H55.1174V43.2962V41.5718H53.598H52.0842L52.0446 41.8319Z" fill="#323232"/>
<path d="M56.7384 41.612C56.7158 41.629 56.6989 41.8268 56.6989 42.0473C56.6989 43.0989 56.4786 43.9978 56.1566 44.2861C56.0493 44.3766 55.9363 44.4557 55.9081 44.4557C55.8403 44.4557 55.8347 44.908 55.8968 45.0041C55.9533 45.0946 56.3826 44.9985 56.6029 44.8402C56.9474 44.5971 57.2129 43.7717 57.292 42.7144L57.3315 42.1943H57.8907H58.4499V43.6077V45.0211H58.7888H59.1278V43.2968V41.5724H57.9529C57.3033 41.5724 56.7554 41.5894 56.7384 41.612Z" fill="#323232"/>
<path d="M63.223 41.634C63.2004 41.6679 63.2004 41.8036 63.223 41.945L63.2569 42.1937H63.8782H64.4939V43.6071V45.0205H64.8046H65.1153V43.6071V42.1937H65.7366H66.3579V41.8828V41.5718H64.8102C63.7653 41.5718 63.2456 41.5944 63.223 41.634Z" fill="#323232"/>
<path d="M70.3738 41.7471C70.4416 41.8432 70.7183 42.2107 70.9951 42.5669C71.2719 42.923 71.4978 43.2283 71.4978 43.2396C71.4978 43.2509 71.2211 43.641 70.8765 44.099C70.5376 44.5569 70.2552 44.9527 70.2552 44.9753C70.2552 45.0035 70.419 45.0205 70.6167 45.0205H70.9838L71.3171 44.5513C71.4978 44.2968 71.7803 43.8954 71.9441 43.658L72.2434 43.2227L71.6616 42.3972L71.0798 41.5718H70.6619H70.2495L70.3738 41.7471Z" fill="#323232"/>
<path d="M72.3452 43.2962V45.0205H72.6559H72.9666V43.2962V41.5718H72.6559H72.3452V43.2962Z" fill="#323232"/>
<path d="M73.7805 42.2672C73.5151 42.6517 73.2552 43.0304 73.2044 43.1096C73.1197 43.2509 73.131 43.2736 73.7353 44.1329L74.351 45.0149H74.7634L75.1701 45.0205L74.5035 44.1272L73.8314 43.2396L74.4414 42.4481C74.7803 42.0128 75.0515 41.6397 75.0571 41.6114C75.0571 41.5888 74.882 41.5718 74.6674 41.5718H74.272L73.7805 42.2672Z" fill="#323232"/>
<path d="M79.519 43.2962V45.0205H79.8241H80.1234L81.078 43.7993L82.0326 42.5782L82.0609 43.788L82.0891 44.9922H82.3998H82.7105L82.7274 43.2792L82.7387 41.5718H82.4054H82.0722L81.1232 42.7987L80.1686 44.0311L80.1517 42.7987L80.1404 41.5718H79.8297H79.519V43.2962Z" fill="#323232"/>
</svg>
