<svg width="24" height="25" viewBox="0 0 24 25" fill="none" xmlns="http://www.w3.org/2000/svg">
<path d="M22.2234 0.675781H1.77187C0.792187 0.675781 0 1.44922 0 2.40547V22.9414C0 23.8977 0.792187 24.6758 1.77187 24.6758H22.2234C23.2031 24.6758 24 23.8977 24 22.9461V2.40547C24 1.44922 23.2031 0.675781 22.2234 0.675781ZM7.12031 21.1273H3.55781V9.67109H7.12031V21.1273ZM5.33906 8.11016C4.19531 8.11016 3.27188 7.18672 3.27188 6.04766C3.27188 4.90859 4.19531 3.98516 5.33906 3.98516C6.47813 3.98516 7.40156 4.90859 7.40156 6.04766C7.40156 7.18203 6.47813 8.11016 5.33906 8.11016ZM20.4516 21.1273H16.8937V15.5586C16.8937 14.232 16.8703 12.5211 15.0422 12.5211C13.1906 12.5211 12.9094 13.9695 12.9094 15.4648V21.1273H9.35625V9.67109H12.7687V11.2367H12.8156C13.2891 10.3367 14.4516 9.38516 16.1813 9.38516C19.7859 9.38516 20.4516 11.757 20.4516 14.8414V21.1273Z" fill="#5754FF"/>
</svg>
