<svg width="104" height="118" viewBox="0 0 104 118" fill="none" xmlns="http://www.w3.org/2000/svg">
<path d="M29.8804 28.155H4.35547V85.8431H32.3859V53.9023M42.3925 86.5665V17.6883M52.5827 86.5665V0.194336M62.3894 86.5665V26.095M72.9084 46.3458V85.8431H99.644V28.155H74.8854" stroke="#232323" stroke-width="1.5"/>
<path d="M1.2 112.157L3.91 98.1572H5.2L8.98 108.097L12.75 98.1572H14.04L16.76 112.157H15.05L13.08 101.997L9.53 111.397H8.42L4.87 101.997L2.91 112.157H1.2ZM25.4828 112.417C24.5361 112.417 23.6461 112.231 22.8128 111.857C21.9795 111.477 21.2461 110.954 20.6128 110.287C19.9795 109.621 19.4828 108.851 19.1228 107.977C18.7628 107.097 18.5828 106.157 18.5828 105.157C18.5828 104.157 18.7628 103.221 19.1228 102.347C19.4828 101.467 19.9795 100.694 20.6128 100.027C21.2461 99.3606 21.9795 98.8406 22.8128 98.4672C23.6461 98.0872 24.5361 97.8972 25.4828 97.8972C26.4361 97.8972 27.3295 98.0872 28.1628 98.4672C28.9961 98.8406 29.7295 99.3606 30.3628 100.027C30.9961 100.694 31.4895 101.467 31.8428 102.347C32.2028 103.221 32.3828 104.157 32.3828 105.157C32.3828 106.157 32.2028 107.097 31.8428 107.977C31.4895 108.851 30.9961 109.621 30.3628 110.287C29.7295 110.954 28.9961 111.477 28.1628 111.857C27.3295 112.231 26.4361 112.417 25.4828 112.417ZM25.4828 110.737C26.2095 110.737 26.8861 110.591 27.5128 110.297C28.1461 110.004 28.6995 109.601 29.1728 109.087C29.6528 108.567 30.0261 107.974 30.2928 107.307C30.5661 106.634 30.7028 105.917 30.7028 105.157C30.7028 104.397 30.5661 103.681 30.2928 103.007C30.0195 102.327 29.6428 101.734 29.1628 101.227C28.6895 100.714 28.1361 100.311 27.5028 100.017C26.8761 99.7239 26.2028 99.5772 25.4828 99.5772C24.7561 99.5772 24.0761 99.7239 23.4428 100.017C22.8161 100.311 22.2628 100.717 21.7828 101.237C21.3095 101.751 20.9361 102.344 20.6628 103.017C20.3961 103.684 20.2628 104.397 20.2628 105.157C20.2628 105.924 20.3995 106.644 20.6728 107.317C20.9461 107.991 21.3195 108.584 21.7928 109.097C22.2728 109.611 22.8261 110.014 23.4528 110.307C24.0861 110.594 24.7628 110.737 25.4828 110.737ZM34.7539 112.157V98.1572H36.5739L43.5639 109.117V98.1572H45.2439V112.157H43.4339L36.4339 101.197V112.157H34.7539ZM54.5445 112.417C53.5979 112.417 52.7079 112.231 51.8745 111.857C51.0412 111.477 50.3079 110.954 49.6745 110.287C49.0412 109.621 48.5445 108.851 48.1845 107.977C47.8245 107.097 47.6445 106.157 47.6445 105.157C47.6445 104.157 47.8245 103.221 48.1845 102.347C48.5445 101.467 49.0412 100.694 49.6745 100.027C50.3079 99.3606 51.0412 98.8406 51.8745 98.4672C52.7079 98.0872 53.5979 97.8972 54.5445 97.8972C55.4979 97.8972 56.3912 98.0872 57.2245 98.4672C58.0579 98.8406 58.7912 99.3606 59.4245 100.027C60.0579 100.694 60.5512 101.467 60.9045 102.347C61.2645 103.221 61.4445 104.157 61.4445 105.157C61.4445 106.157 61.2645 107.097 60.9045 107.977C60.5512 108.851 60.0579 109.621 59.4245 110.287C58.7912 110.954 58.0579 111.477 57.2245 111.857C56.3912 112.231 55.4979 112.417 54.5445 112.417ZM54.5445 110.737C55.2712 110.737 55.9479 110.591 56.5745 110.297C57.2079 110.004 57.7612 109.601 58.2345 109.087C58.7145 108.567 59.0879 107.974 59.3545 107.307C59.6279 106.634 59.7645 105.917 59.7645 105.157C59.7645 104.397 59.6279 103.681 59.3545 103.007C59.0812 102.327 58.7045 101.734 58.2245 101.227C57.7512 100.714 57.1979 100.311 56.5645 100.017C55.9379 99.7239 55.2645 99.5772 54.5445 99.5772C53.8179 99.5772 53.1379 99.7239 52.5045 100.017C51.8779 100.311 51.3245 100.717 50.8445 101.237C50.3712 101.751 49.9979 102.344 49.7245 103.017C49.4579 103.684 49.3245 104.397 49.3245 105.157C49.3245 105.924 49.4612 106.644 49.7345 107.317C50.0079 107.991 50.3812 108.584 50.8545 109.097C51.3345 109.611 51.8879 110.014 52.5145 110.307C53.1479 110.594 53.8245 110.737 54.5445 110.737ZM63.8156 112.157V98.1572H65.4956V110.477H71.7656V112.157H63.8156ZM74.6719 112.157V98.1572H76.3519V112.157H74.6719ZM90.0494 98.1572V99.8372H85.3894V112.157H83.7094V99.8372H79.0594V98.1572H90.0494ZM101.067 98.1572H102.747V112.157H101.067V105.497H94.137V112.157H92.457V98.1572H94.137V103.817H101.067V98.1572Z" fill="#232323"/>
</svg>
