<svg width="23" height="24" viewBox="0 0 23 24" fill="none" xmlns="http://www.w3.org/2000/svg">
<path d="M15.0339 0.175781H7.97755C1.53295 0.175781 0 1.70873 0 8.14183V15.1982C0 21.6417 1.52145 23.1758 7.96605 23.1758H15.0224C21.4659 23.1758 23 21.6543 23 15.2097V8.15333C23 1.70873 21.4785 0.175781 15.0339 0.175781ZM18.5679 16.5863H16.8901C16.2553 16.5863 16.0644 16.0722 14.9258 14.9337C13.9323 13.9758 13.5125 13.8562 13.2606 13.8562C12.9134 13.8562 12.8179 13.9516 12.8179 14.4312V15.94C12.8179 16.3482 12.6856 16.5874 11.6196 16.5874C10.585 16.5179 9.58171 16.2036 8.69239 15.6703C7.80306 15.1371 7.05314 14.4002 6.5044 13.5204C5.20164 11.8989 4.29518 9.99578 3.8571 7.96243C3.8571 7.71058 3.95255 7.48288 4.4321 7.48288H6.1088C6.54005 7.48288 6.6953 7.67493 6.86435 8.11768C7.67855 10.5143 9.06775 12.5981 9.63125 12.5981C9.84745 12.5981 9.94175 12.5026 9.94175 11.9633V9.49538C9.87045 8.36953 9.27245 8.27408 9.27245 7.86698C9.28013 7.7596 9.32934 7.65944 9.40963 7.58774C9.48992 7.51603 9.59499 7.47842 9.70255 7.48288H12.3384C12.6983 7.48288 12.8179 7.66228 12.8179 8.09353V11.4239C12.8179 11.7839 12.9731 11.9035 13.0813 11.9035C13.2975 11.9035 13.4642 11.7839 13.8598 11.3883C14.7095 10.3521 15.4037 9.19762 15.9206 7.96128C15.9734 7.81277 16.0734 7.68563 16.2053 7.59925C16.3371 7.51287 16.4936 7.47201 16.6509 7.48288H18.3287C18.8312 7.48288 18.9382 7.73473 18.8312 8.09353C18.2212 9.46023 17.4663 10.7576 16.5795 11.9633C16.399 12.2393 16.3265 12.383 16.5795 12.7062C16.7463 12.958 17.334 13.4491 17.7295 13.916C18.3044 14.4894 18.7818 15.1529 19.1429 15.8802C19.2866 16.3471 19.0463 16.5863 18.5679 16.5863Z" fill="#5754FF"/>
</svg>
