<svg width="35" height="35" viewBox="0 0 35 35" fill="none" xmlns="http://www.w3.org/2000/svg">
<path fill-rule="evenodd" clip-rule="evenodd" d="M0.220703 5.12162C0.220703 4.33922 0.854966 3.70496 1.63737 3.70496H3.67517C5.62536 3.70496 7.32529 5.03222 7.79827 6.92418L8.05597 7.95496H26.5746C29.8172 7.95496 31.86 11.438 30.2872 14.2689L26.3521 21.3523C25.6025 22.7015 24.1804 23.5383 22.6369 23.5383H12.3496C10.3994 23.5383 8.69945 22.211 8.22646 20.3191L5.04954 7.61136C4.89188 6.98071 4.32523 6.53829 3.67517 6.53829H1.63737C0.854966 6.53829 0.220703 5.90403 0.220703 5.12162ZM8.7643 10.7883L10.9752 19.6319C11.1329 20.2625 11.6995 20.705 12.3496 20.705H22.6369C23.1514 20.705 23.6254 20.426 23.8753 19.9763L27.8105 12.893C28.3361 11.9469 27.6526 10.7883 26.5746 10.7883H8.7643Z" fill="#5754FF"/>
<path d="M12.9707 29.205C12.9707 30.7698 11.7022 32.0383 10.1374 32.0383C8.57256 32.0383 7.30404 30.7698 7.30404 29.205C7.30404 27.6401 8.57256 26.3716 10.1374 26.3716C11.7022 26.3716 12.9707 27.6401 12.9707 29.205Z" fill="#5754FF"/>
<path d="M27.1374 29.205C27.1374 30.7698 25.8688 32.0383 24.304 32.0383C22.7392 32.0383 21.4707 30.7698 21.4707 29.205C21.4707 27.6401 22.7392 26.3716 24.304 26.3716C25.8688 26.3716 27.1374 27.6401 27.1374 29.205Z" fill="#5754FF"/>
</svg>
