<svg width="98" height="32" viewBox="0 0 98 32" fill="none" xmlns="http://www.w3.org/2000/svg">
<path fill-rule="evenodd" clip-rule="evenodd" d="M82.756 0.497971C81.1452 0.56973 79.8218 1.0272 78.7209 1.89275C78.2786 2.24055 77.5509 3.10087 77.2386 3.64531C76.3053 5.27244 75.9128 7.19978 76.0183 9.6385C76.1807 13.3958 76.7819 14.7404 79.2153 16.7888C80.1109 17.5427 80.9501 18.1397 82.0705 18.8198C82.8951 19.3204 83.2916 19.636 83.6981 20.1158C84.4379 20.9889 84.716 21.8341 84.7136 23.2023C84.7113 24.5083 84.5441 25.3405 84.1818 25.8487C83.927 26.206 83.4801 26.3914 82.9978 26.3398C82.4555 26.2818 82.0698 26.0321 81.8721 25.6109L81.7571 25.3658L81.7454 23.2736L81.7337 21.1814H78.915H76.0962L76.0965 22.7187C76.0969 24.6727 76.1529 25.293 76.4146 26.2388C77.0327 28.4737 78.5184 30.1337 80.5818 30.895C81.004 31.0509 81.5436 31.1879 82.0509 31.2682C82.505 31.3401 83.8004 31.3377 84.3623 31.264C87.3452 30.8724 89.3451 29.1178 90.1733 26.1655C90.6348 24.5206 90.7462 22.3572 90.4687 20.4289C90.1368 18.1224 89.2378 16.4151 87.653 15.0813C87.4483 14.909 86.8049 14.4292 86.2231 14.0151C83.4357 12.0309 82.4559 11.0887 81.9551 9.91079C81.6694 9.23906 81.5484 8.27673 81.6189 7.23598C81.7009 6.02379 81.9308 5.37934 82.3966 5.05619C82.57 4.93583 82.6058 4.92908 83.0695 4.92908C83.5263 4.92908 83.5727 4.9375 83.7604 5.05438C84.0097 5.20955 84.2167 5.48906 84.3326 5.82705C84.4193 6.08001 84.4213 6.12653 84.4327 8.22346L84.4442 10.3619H87.2827H90.1211V8.84535C90.1211 8.01123 90.1026 7.05654 90.08 6.72386C89.8538 3.39448 87.9663 1.19578 84.852 0.633814C84.3051 0.535144 83.3342 0.472217 82.756 0.497971ZM67.3012 0.560621C65.7573 0.673439 64.4116 1.19346 63.399 2.0685C63.0854 2.33958 62.5556 2.9433 62.3004 3.32055C61.8442 3.99478 61.411 5.00163 61.1904 5.90006C60.8805 7.16237 60.7893 8.18745 60.8547 9.67313C60.9634 12.1422 61.261 13.4586 61.9655 14.5867C62.7904 15.9079 64.7926 17.6406 66.9124 18.868C67.9794 19.4858 68.6044 20.0597 69.0222 20.8049C69.408 21.4933 69.5544 22.155 69.5526 23.2023C69.5503 24.5083 69.383 25.3405 69.0208 25.8487C68.766 26.206 68.3191 26.3914 67.8368 26.3398C67.2908 26.2814 66.9104 26.0365 66.7135 25.6165L66.596 25.3658L66.5844 23.2736L66.5727 21.1814H63.7499H60.927L60.9467 22.9962C60.9681 24.9615 60.9853 25.1615 61.2106 26.0735C62.0613 29.5168 64.9844 31.5802 68.6282 31.3095C71.5959 31.089 73.5793 29.7492 74.6459 27.2444C75.2595 25.8037 75.5498 23.7978 75.4331 21.8056C75.2514 18.7033 74.3548 16.6832 72.4528 15.0908C72.2697 14.9375 71.6438 14.4734 71.0621 14.0594C67.3556 11.4219 66.5565 10.4271 66.4393 8.30438C66.4103 7.77871 66.4685 6.85989 66.5618 6.36978C66.6347 5.98703 66.8095 5.54163 66.9609 5.35266C67.2326 5.01365 67.6591 4.87124 68.1547 4.9541C68.6526 5.03742 68.9898 5.34226 69.1712 5.87329C69.2575 6.12579 69.2596 6.17632 69.2716 8.2697L69.2839 10.4082H72.122H74.9601L74.9597 8.84766C74.9594 7.98941 74.9407 7.03749 74.9181 6.73232C74.6847 3.58322 72.9618 1.43616 70.135 0.771966C69.2994 0.575598 68.2091 0.494271 67.3012 0.560621ZM0.222061 3.55353L0.232207 5.90006L3.98329 5.91185C6.04641 5.91832 7.73437 5.9358 7.73437 5.95064C7.73437 5.97339 6.70691 8.69106 5.40239 12.1189C4.47781 14.5484 3.31664 17.6032 3.17031 17.991C2.982 18.4902 2.01565 21.0349 0.94125 23.8607L0.212619 25.7772V28.2648V30.7524H7.14674H14.0809V28.2325V25.7126H10.257C7.2133 25.7126 6.4373 25.7008 6.45336 25.6548C6.46449 25.623 7.05839 24.0365 7.7732 22.1292C9.16159 18.4247 12.0212 10.7896 13.1563 7.75656L13.8458 5.91411V3.56056V1.20701H7.02886H0.211914L0.222061 3.55353ZM16.4938 1.40352C16.4823 1.51162 16.1377 8.03967 15.7279 15.9103C15.3181 23.781 14.9725 30.3497 14.9599 30.5075L14.9369 30.7942L17.4568 30.767C18.8428 30.752 19.9837 30.7327 19.9922 30.7241C20.0007 30.7155 20.0566 30.0265 20.1165 29.193C20.1764 28.3595 20.2268 27.6725 20.2284 27.6661C20.2301 27.6597 20.8485 27.6545 21.6026 27.6545C22.8823 27.6545 22.9738 27.6599 22.974 27.7354C22.9741 27.78 23.0179 28.4301 23.0714 29.1803C23.1249 29.9305 23.1688 30.5912 23.1691 30.6484L23.1696 30.7524H25.9315C28.5355 30.7524 28.6935 30.7478 28.6943 30.6715C28.6955 30.5405 26.4583 1.42516 26.4381 1.31104L26.4197 1.20701H21.4671H16.5146L16.4938 1.40352ZM29.9079 15.9797V30.7524H32.7285H35.5492L35.5519 25.2155C35.5535 21.8365 35.5684 19.7147 35.5903 19.7711C35.6241 19.8587 38.3699 30.6847 38.3699 30.7307C38.3699 30.7426 39.5951 30.7524 41.0926 30.7524H43.8153V15.9797V1.20701H41.034H38.2526L38.2427 6.79844L38.2327 12.3899L36.9037 7.36485C36.1727 4.60108 35.5066 2.08491 35.4234 1.77341L35.2723 1.20701H32.5901H29.9079V15.9797ZM45.6278 13.3326C45.639 24.8402 45.6432 25.4759 45.7104 25.805C45.9666 27.0602 46.4351 28.0191 47.2816 29.0211C47.8794 29.7288 48.3814 30.1477 49.1624 30.5907C50.283 31.2262 51.3208 31.4922 52.6804 31.4922C54.2458 31.4922 55.4983 31.1732 56.6845 30.4724C58.2567 29.5437 59.2366 28.1093 59.6105 26.1894L59.6989 25.7357L59.7105 13.4714L59.7221 1.20701H56.901H54.0799L54.0698 13.2864L54.0598 25.3658L53.9744 25.5539C53.5735 26.438 52.2522 26.6309 51.6429 25.8944C51.3081 25.4896 51.337 26.6927 51.337 13.1971V1.20701H48.4765H45.6159L45.6278 13.3326ZM91.5887 1.26481C91.5785 1.29662 91.5746 7.94951 91.5802 16.0491L91.5902 30.7755L94.401 30.7874L97.2119 30.7992V16.0031V1.20701H94.4096C92.2038 1.20701 91.6033 1.21931 91.5887 1.26481ZM21.4765 8.00384C21.4635 8.04198 21.3718 9.37361 21.2727 10.963C20.9438 16.2362 20.5487 22.4494 20.5267 22.6956L20.505 22.9384H21.5631H22.6212V22.8241C22.6212 22.7176 21.5393 8.30355 21.5123 8.05007C21.5038 7.97073 21.4926 7.95621 21.4765 8.00384Z" fill="#2C2C2C"/>
</svg>
