<svg width="69" height="36" viewBox="0 0 69 36" fill="none" xmlns="http://www.w3.org/2000/svg">
<path d="M29.4511 29.3298C28.4526 29.3298 27.6421 28.4921 27.6421 27.46V18.1002C27.6421 17.0682 28.4526 16.2305 29.4511 16.2305C30.4496 16.2305 31.2601 17.0682 31.2601 18.1002V27.46C31.2601 28.4921 30.4496 29.3298 29.4511 29.3298ZM29.4511 9.7944C24.6254 9.7944 20.7001 13.8515 20.7001 18.8421V26.7674C20.7001 31.758 24.6254 35.8151 29.4511 35.8151C34.2768 35.8151 38.2047 31.758 38.2047 26.7674V18.8421C38.2047 13.8515 34.2795 9.7944 29.4511 9.7944ZM48.7435 8.5926H50.6081C52.5257 8.5926 54.0777 7.33057 54.0777 5.34856C54.0777 3.36929 52.5257 2.10726 50.6081 2.10726H48.709C43.8859 2.10726 39.9581 6.04665 39.9581 11.0318V32.2262C39.9581 34.2082 41.5128 35.8151 43.4277 35.8151C45.3453 35.8151 46.8974 34.2082 46.8974 32.2262V18.2398H49.2944C51.2119 18.2398 52.764 17.0025 52.764 15.0232C52.764 13.0384 51.2093 11.7737 49.2944 11.7737H46.8974V10.6732C46.9 9.47684 47.586 8.5926 48.7435 8.5926ZM57.7858 27.9884C55.6695 27.9884 53.9532 29.7596 53.9532 31.9497C53.9532 34.1343 55.6695 35.9082 57.7858 35.9082C59.902 35.9082 61.6156 34.1343 61.6156 31.9497C61.6183 29.7596 59.9046 27.9884 57.7858 27.9884ZM63.0988 8.5926H64.9635C66.881 8.5926 68.4331 7.33057 68.4331 5.34856C68.4331 3.36929 66.8784 2.10726 64.9635 2.10726H63.0671C58.244 2.10726 54.3161 6.04665 54.3161 11.0345V23.2031C54.3161 25.1851 55.8708 26.7921 57.7884 26.7921C59.7033 26.7921 61.2581 25.1851 61.2581 23.2031V18.2398H63.6524C65.57 18.2398 67.1247 17.0025 67.1247 15.0232C67.1247 13.0384 65.57 11.7737 63.6524 11.7737H61.2581V10.6732C61.2581 9.47684 61.9414 8.5926 63.0988 8.5926ZM15.5619 0.908203C13.6443 0.908203 12.0896 2.51243 12.0896 4.49444V11.76H7.37242V4.49717C7.37242 2.5179 5.8177 0.908203 3.90276 0.908203C1.98518 0.908203 0.433105 2.51516 0.433105 4.49717V32.2344C0.433105 34.2136 1.98783 35.8206 3.90276 35.8206C5.82035 35.8206 7.37242 34.2136 7.37242 32.2344V18.2426H10.3309C11.3003 18.2426 12.0896 19.0556 12.0896 20.0603V32.2316C12.0922 34.2136 13.6443 35.8206 15.5619 35.8206C17.4768 35.8206 19.0315 34.2136 19.0315 32.2316V4.4917C19.0315 2.51243 17.4768 0.908203 15.5619 0.908203Z" fill="#2C2C2C"/>
</svg>
