<svg width="167" height="58" viewBox="0 0 167 58" fill="none" xmlns="http://www.w3.org/2000/svg">
<path fill-rule="evenodd" clip-rule="evenodd" d="M76.2314 0.76685C76.1564 0.841254 76.0949 3.92346 76.0949 7.61651V14.3309H78.0413H79.9876L79.9365 7.53613L79.8853 0.741408L78.1266 0.686471C77.1592 0.656208 76.3062 0.692445 76.2314 0.76685ZM87.8942 0.76685C87.8191 0.841254 87.7577 3.92346 87.7577 7.61651V14.3309H89.704H91.6503L91.5992 7.53613L91.5481 0.741408L89.7894 0.686471C88.8219 0.656208 87.969 0.692445 87.8942 0.76685ZM70.3932 14.4594C70.3219 14.53 70.2636 18.0864 70.2636 22.3625V30.137H72.2074H74.1511V22.2339V14.3309H72.337C71.3391 14.3309 70.4643 14.3887 70.3932 14.4594ZM82.0628 14.4527C81.9878 14.5271 81.9263 18.0864 81.9263 22.3625V30.137H83.8723H85.8182L85.7674 22.2821L85.7167 14.4272L83.958 14.3723C82.9906 14.342 82.1376 14.3783 82.0628 14.4527ZM93.5891 22.227V30.137H95.535H97.4809L97.4302 22.2821L97.3795 14.4272L95.4843 14.3721L93.5891 14.317V22.227ZM32.7472 41.4851C31.854 41.7765 31.1021 42.2416 30.4743 42.8909C28.6553 44.7714 28.8707 47.7653 30.9379 49.3326C31.369 49.6594 32.6515 50.2974 33.7881 50.7504C36.1817 51.7043 37.0247 52.4395 37.0247 53.5726C37.0247 55.4009 34.1261 56.0798 30.4547 55.1115L29.4246 54.8399L29.4828 55.8299L29.5411 56.82L30.7073 57.1978C32.4867 57.7743 35.6131 57.7471 36.9745 57.1434C39.0182 56.237 40.021 54.4053 39.5693 52.4037C39.1265 50.4412 37.9177 49.2902 35.2166 48.2588C32.869 47.3625 32.2472 46.9906 31.9646 46.3141C31.5891 45.4146 32.0305 44.2739 32.9396 43.7945C33.778 43.3523 35.5917 43.3267 37.5106 43.7298C38.2588 43.887 38.9416 44.0156 39.0276 44.0156C39.1137 44.0156 39.1574 43.6035 39.125 43.1L39.0657 42.1844L37.9966 41.8238C36.8284 41.4296 33.5622 41.2189 32.7472 41.4851ZM46.6439 41.6534C44.2824 42.4882 42.9076 43.7615 42.0438 45.9137C41.6688 46.8474 41.6064 47.3619 41.6064 49.5092C41.6064 52.3915 41.917 53.4714 43.1935 55.0271C44.7499 56.924 46.3504 57.5894 49.3678 57.5937C51.3928 57.5968 51.5806 57.5625 52.9183 56.9445C55.3319 55.8298 56.6187 54.0145 57.0796 51.074C57.7078 47.0666 56.0187 43.3789 52.9121 41.9764C51.8731 41.5072 51.4093 41.4207 49.6593 41.369C48.075 41.3224 47.4005 41.386 46.6439 41.6534ZM118.835 41.7499C117.297 42.2842 116.341 42.9707 115.46 44.1748C114.535 45.4393 114.154 46.7161 114.045 48.914C113.858 52.7204 115.063 55.3361 117.627 56.6852C120.536 58.2155 124.449 57.9491 126.96 56.0495C128.925 54.5633 130.053 51.0725 129.557 48.0107C129.075 45.0289 127.822 43.1759 125.536 42.0595C124.396 41.503 124.06 41.434 122.195 41.3719C120.412 41.3126 119.941 41.3656 118.835 41.7499ZM149.016 41.6732C147.76 42.1187 147.089 42.5894 146.511 43.4323C145.549 44.8333 145.448 46.3773 146.217 47.8845C146.871 49.1646 147.84 49.8508 150.423 50.8651C152.425 51.6508 153.371 52.4056 153.567 53.3727C153.71 54.0866 153.106 54.9269 152.168 55.3153C151.334 55.6609 149.244 55.6487 147.529 55.2887C146.781 55.1314 146.098 55.0028 146.012 55.0028C145.926 55.0028 145.883 55.4149 145.915 55.9184L145.974 56.834L147.043 57.2137C147.868 57.5065 148.627 57.5946 150.362 57.5993C152.485 57.6047 152.674 57.5727 153.756 57.0243C155.306 56.2384 156.027 55.2191 156.142 53.6554C156.212 52.6866 156.141 52.3275 155.705 51.4428C154.962 49.9369 153.944 49.1626 151.472 48.2229C148.968 47.2715 148.404 46.8019 148.404 45.6706C148.404 44.2066 149.429 43.4344 151.362 43.4406C152.335 43.4439 154.505 43.8215 155.267 44.1203C155.583 44.2442 155.612 44.1554 155.559 43.2282L155.499 42.1985L154.333 41.8382C152.563 41.2915 150.291 41.221 149.016 41.6732ZM7.21815 41.6543C7.07684 41.8829 0.870117 57.2774 0.870117 57.3992C0.870117 57.4595 1.38192 57.5087 2.00743 57.5087H3.14494L3.90612 55.5329L4.66732 53.5571H7.83512H11.0027L11.783 55.5329L12.5632 57.5087H14.0286C15.4054 57.5087 15.4876 57.485 15.3906 57.1174C15.3339 56.9021 13.9073 53.3023 12.2205 49.1179L9.15359 41.5098H8.23068C7.72296 41.5098 7.26733 41.5747 7.21815 41.6543ZM16.8092 49.5044V57.5468L20.1623 57.4722C23.1606 57.4057 23.6234 57.35 24.5372 56.947C26.9278 55.8924 27.9901 53.2543 26.8946 51.0918C26.5218 50.3556 25.6601 49.4371 25.326 49.4198C25.2527 49.4159 24.9533 49.3226 24.6608 49.2122L24.1288 49.0117L24.8173 48.5475C26.4899 47.4205 26.5978 44.5283 25.0241 43.0052C23.9025 41.9196 22.9695 41.667 19.6763 41.5574L16.8092 41.4619V49.5044ZM59.1839 49.5007V57.5087H63.5575H67.931V56.4485V55.3883H65.0178H62.1045L62.0536 48.4972L62.0024 41.6061L60.5932 41.5495L59.1839 41.4928V49.5007ZM69.0973 47.161C69.0973 53.6477 69.1873 54.2002 70.4817 55.6584C70.9233 56.1561 71.7329 56.7964 72.2806 57.0813C73.1353 57.5262 73.5105 57.5995 74.9287 57.5985C77.0262 57.597 78.2623 57.0944 79.4843 55.7465C80.8913 54.1948 80.9544 53.8301 80.9544 47.2482V41.4895L79.9339 41.5479L78.9134 41.6061L78.8163 47.1961C78.7228 52.5714 78.7016 52.8214 78.263 53.7044C77.3261 55.5913 74.7539 56.2633 73.3033 55.0003C72.0157 53.8792 71.9362 53.4473 71.8579 47.1479L71.7879 41.5098H70.4426H69.0973V47.161ZM82.3536 42.5217C82.3959 43.2521 82.4933 43.5408 82.7038 43.5597C82.8642 43.574 83.6722 43.5956 84.4993 43.6079L86.0034 43.6301L86.0544 50.5212L86.1055 57.4123L87.5147 57.469L88.924 57.5256V50.5779C88.924 45.1567 88.9774 43.6266 89.167 43.6141C89.3007 43.6052 90.1097 43.5834 90.965 43.5659L92.52 43.5337L92.5787 42.5217L92.6376 41.5098H87.4661H82.2947L82.3536 42.5217ZM100.587 49.5092V57.5087H101.947H103.308L103.311 54.3764C103.312 52.6537 103.366 51.0488 103.431 50.8103C103.545 50.3861 103.609 50.3766 106.344 50.3766H109.139V53.9426V57.5087H110.5H111.861V49.5092V41.5098H110.5H109.139V44.883V48.2563H106.35H103.559L103.434 46.7815C103.365 45.9704 103.308 44.4524 103.308 43.4082V41.5098H101.947H100.587V49.5092ZM131.726 47.5334L131.785 53.5571L132.302 54.5209C133.442 56.6461 135.122 57.6018 137.713 57.6004C139.129 57.5999 139.508 57.5254 140.361 57.0813C140.909 56.7964 141.712 56.1638 142.145 55.6759C143.479 54.1732 143.545 53.7765 143.545 47.2582V41.5098H142.486H141.428L141.369 47.2443C141.309 52.9511 141.307 52.9829 140.825 53.817C139.783 55.622 137.294 56.2195 135.893 55.0003C134.606 53.8792 134.526 53.4473 134.448 47.1479L134.378 41.5098H133.022H131.667L131.726 47.5334ZM158.123 49.5092V57.516L162.448 57.4641L166.773 57.4123V56.4485V55.4847L163.809 55.4315L160.844 55.3783V52.8775V50.3766H163.857H166.87V49.4128V48.449H163.851H160.833L160.887 46.0353L160.942 43.6214L163.857 43.5777L166.773 43.5337V42.5699V41.6061L162.448 41.5543L158.123 41.5024V49.5092ZM19.5733 45.895L19.6277 48.3527L20.2904 48.4153C21.2613 48.5073 22.4952 47.9741 22.9053 47.2856C23.4111 46.4365 23.4146 45.1328 22.9129 44.4628C22.3463 43.706 21.7385 43.4435 20.5452 43.4402L19.5189 43.4373L19.5733 45.895ZM47.4506 43.7197C45.5797 44.3811 44.4189 46.5263 44.4134 49.3325C44.406 53.0858 45.9735 55.2682 48.8634 55.5281C52.1948 55.8276 54.1602 53.6412 54.1868 49.6056C54.2008 47.4957 53.9856 46.5936 53.1611 45.304C52.1149 43.6681 49.5833 42.9659 47.4506 43.7197ZM119.501 43.926C117.663 44.8344 116.816 46.8422 116.953 49.9693C117.039 51.9432 117.479 53.2917 118.333 54.2C120.014 55.9869 123.548 55.9932 125.171 54.2121C126.204 53.0777 126.481 52.2782 126.591 50.1176C126.761 46.7589 125.957 44.7889 124.056 43.9113C122.626 43.2509 120.855 43.2565 119.501 43.926ZM6.64552 48.35C6.03478 49.9919 5.53522 51.4231 5.53522 51.5305C5.53522 51.6517 6.4214 51.7259 7.86777 51.7259C9.15068 51.7259 10.2003 51.677 10.2003 51.617C10.2003 51.3254 7.98887 45.3649 7.8806 45.3649C7.81199 45.3649 7.25626 46.7082 6.64552 48.35ZM19.6763 50.2908C19.596 50.3733 19.5305 51.5974 19.5305 53.011V55.5811H20.8873C23.3804 55.5811 24.4326 54.8131 24.4592 52.9738C24.4761 51.8254 24.0955 51.1128 23.2276 50.6679C22.5889 50.3402 19.9053 50.0553 19.6763 50.2908Z" fill="#2C2C2C"/>
</svg>
