<svg width="117" height="58" viewBox="0 0 117 58" fill="none" xmlns="http://www.w3.org/2000/svg">
<path d="M77.2348 20.5231L77.118 20.0615C71.1538 21.1 64.9568 21.6769 58.7591 21.6769C52.4445 21.6769 46.3638 21.1 40.4002 20.0615L40.2832 20.5231C46.2469 21.7923 52.4445 22.4846 58.7591 22.4846C65.0735 22.4846 71.2713 21.7923 77.2348 20.5231Z" fill="#2C2C2C"/>
<path d="M84.9521 22.9459L84.8354 22.4844C76.2994 24.0997 67.6459 24.9074 58.6422 24.9074C49.7549 24.9074 40.9847 24.0997 32.4484 22.4844L32.3315 22.9459C40.7508 24.792 49.521 25.7151 58.5248 25.7151C67.7627 25.7151 76.5329 24.6767 84.9521 22.9459Z" fill="#2C2C2C"/>
<path d="M69.8673 18.3307L69.7506 17.8691C66.1254 18.3307 62.5008 18.5615 58.7588 18.5615C55.0168 18.5615 51.3918 18.3307 47.7668 17.8691L47.6499 18.3307C51.2749 19.023 54.9001 19.3691 58.7588 19.3691C62.5008 19.3691 66.2428 18.9076 69.8673 18.3307Z" fill="#2C2C2C"/>
<path d="M57.8233 1.94531C55.6011 1.94531 53.8472 3.67608 53.8472 6.32991V15.676H55.0167V6.32991C55.0167 3.90685 56.4196 2.63761 58.291 2.63761C60.0449 2.63761 61.4479 4.02226 61.4479 5.86838H61.682C61.682 3.56066 59.9281 1.94531 57.8233 1.94531Z" fill="#2C2C2C"/>
<path d="M57.8234 1.2537C60.3959 1.2537 62.5007 3.09982 62.5007 6.44594V15.7921H63.6702V6.44594C63.6702 2.75364 61.2145 0.676758 58.2911 0.676758C56.303 0.676758 54.5491 1.83058 53.6138 3.446L53.8473 3.56135C54.6658 2.06134 56.0688 1.2537 57.8234 1.2537Z" fill="#2C2C2C"/>
<path d="M61.799 52.3691H61.3313L58.6421 55.7153V56.0614H60.9804V57.5615H61.799V56.0614H62.6176V55.4845H61.799V52.3691ZM60.9804 55.5999H58.993L60.8637 53.1769V55.5999H60.9804Z" fill="#2C2C2C"/>
<path d="M67.6457 54.6768C68.2301 54.446 68.8152 54.0999 68.8152 53.523C68.8152 52.8307 67.8799 52.3691 67.178 52.3691C66.2427 52.3691 65.3067 52.8307 65.3067 53.6384C65.3067 54.3307 65.775 54.6768 66.3594 54.9076C65.775 55.2537 65.1899 55.5999 65.1899 56.2922C65.1899 57.2152 66.0085 57.5615 66.8271 57.5615C67.9966 57.5615 68.9319 57.1 68.9319 56.0614C69.0487 55.3691 68.4643 54.9076 67.6457 54.6768ZM66.1253 53.523C66.1253 52.9461 66.5936 52.7153 67.178 52.7153C67.7624 52.7153 68.2301 53.0614 68.2301 53.523C68.2301 53.9845 67.9966 54.3307 67.5289 54.6768C67.0613 54.3307 66.1253 54.0999 66.1253 53.523ZM67.0613 57.4463C66.3594 57.4463 65.8918 56.9848 65.8918 56.4073C65.8918 55.8307 66.1253 55.3691 66.5936 55.023C67.2948 55.3691 68.2301 55.5999 68.2301 56.4073C68.2301 56.9848 67.7624 57.4463 67.0613 57.4463Z" fill="#2C2C2C"/>
<path d="M49.7548 57.099V52.4834H49.6378C49.404 52.7142 48.9363 53.0603 48.1177 53.291V53.4065C48.5854 53.4065 48.8193 53.4065 48.9363 53.5218C48.9363 53.6372 49.0531 53.7526 49.0531 53.9833V56.9831C49.0531 57.3294 48.8193 57.3294 48.4685 57.3294V57.4446H50.4564C49.8717 57.4446 49.7548 57.3294 49.7548 57.099Z" fill="#2C2C2C"/>
<path d="M53.9646 52.4847C53.7304 52.4847 53.7304 52.4847 53.7304 52.2539H53.6137L53.0288 53.6385H53.2628L53.3795 53.4077C53.4963 53.2924 53.4963 53.177 53.7304 53.177H55.952L54.3148 56.5234C53.9646 57.1002 53.7304 57.5617 53.7304 57.5617C53.7304 57.6769 53.9646 57.6769 54.0814 57.6769C54.4323 57.6769 54.549 57.5617 54.6658 57.3306L56.5371 52.7154V52.4847H54.6658C54.3148 52.4847 54.1981 52.4847 53.9646 52.4847Z" fill="#2C2C2C"/>
<path d="M51.9765 47.0605H1.92822V47.5221H51.9765V47.0605Z" fill="#2C2C2C"/>
<path d="M116.759 47.0605H57.4727V47.5221H116.759V47.0605Z" fill="#2C2C2C"/>
<path d="M43.791 40.5995C43.791 42.7918 45.4281 44.2918 47.6499 44.2918C49.7547 44.2918 51.5087 42.6764 51.5087 40.5995C51.5087 38.4072 49.9886 36.9072 47.6499 36.9072C45.3112 36.9072 43.791 38.5226 43.791 40.5995ZM49.8716 40.5995C49.8716 42.4456 49.0531 43.9456 47.6499 43.9456C46.1297 43.9456 45.4281 42.4456 45.4281 40.5995C45.4281 38.7533 46.2466 37.2533 47.6499 37.2533C49.17 37.3688 49.8716 38.7533 49.8716 40.5995Z" fill="#2C2C2C"/>
<path d="M78.4043 32.984V33.3302C79.1054 33.4455 79.6905 33.3302 79.6905 34.1378V43.1378C79.6905 43.83 78.9887 43.83 78.4043 43.83V44.1762C79.8073 44.1762 81.2103 44.2916 82.6139 44.2916C83.7834 44.2916 85.1864 44.1762 86.2385 43.7147C87.5254 43.0224 87.9931 42.2147 87.9931 41.1762C87.9931 39.5609 86.8236 38.407 85.0697 38.1763C86.4727 37.8301 87.2912 36.907 87.2912 35.6378C87.2912 34.8301 86.8236 33.907 85.8883 33.4455C84.8355 32.984 83.666 32.984 82.4965 32.984C81.0935 32.8686 79.8073 32.8686 78.4043 32.984ZM86.1217 41.1762C86.1217 42.907 85.0697 43.7147 83.0816 43.7147C82.1463 43.7147 81.5612 43.5993 81.5612 42.6762V38.5224H82.3798C84.3678 38.6378 86.1217 38.7532 86.1217 41.1762ZM85.5373 35.6378C85.5373 37.3686 84.1337 38.0609 82.4965 38.0609H81.6786V33.3302C81.7954 33.3302 82.1463 33.3302 82.263 33.3302C84.8355 33.3302 85.5373 34.3686 85.5373 35.6378Z" fill="#2C2C2C"/>
<path d="M93.9564 44.2918C96.0612 44.2918 97.8151 42.6764 97.8151 40.5995C97.8151 38.4072 96.2947 36.9072 93.9564 36.9072C91.6174 36.9072 90.0977 38.4072 90.0977 40.5995C90.0977 42.7918 91.7348 44.2918 93.9564 44.2918ZM93.9564 37.3688C95.5935 37.3688 96.1779 38.8688 96.1779 40.7149C96.1779 42.561 95.3594 44.061 93.9564 44.061C92.436 44.061 91.7348 42.561 91.7348 40.7149C91.7348 38.8688 92.5534 37.3688 93.9564 37.3688Z" fill="#2C2C2C"/>
<path d="M6.48864 44.4076H7.07332L10.5814 35.4076C11.0491 34.3691 11.3999 33.3307 12.6862 33.3307V32.9846H8.82736V33.3307C9.17814 33.3307 9.76282 33.3307 10.1137 33.7922C10.2306 34.1384 10.2306 34.7153 9.76282 35.8691L7.4241 41.9845L4.61765 34.9461C4.61765 34.8307 4.38382 34.2538 4.50077 33.9076C4.61765 33.4461 5.20233 33.2153 5.78701 33.2153V32.8691H0.758789V33.2153C1.10964 33.2153 1.57737 33.3307 1.92815 33.6769C2.279 34.023 2.51283 34.5999 2.86368 35.523L6.48864 44.4076Z" fill="#2C2C2C"/>
<path d="M21.5735 43.8298C20.7549 43.8298 20.521 43.8298 20.521 42.9068V32.7529C19.7025 32.9837 18.7671 33.3299 17.8315 33.4453V33.6761C18.1824 33.6761 18.4162 33.7914 18.6501 33.9068C18.884 34.1376 18.884 34.4837 18.884 34.9452V42.9068C18.884 43.7144 18.6501 43.7144 17.8315 43.8298V44.1759H21.5735V43.8298Z" fill="#2C2C2C"/>
<path d="M26.8357 43.8298C26.0171 43.8298 25.7832 43.8298 25.7832 42.9068V32.7529C24.9647 32.9837 24.0292 33.3299 23.0938 33.4453V33.6761C23.4445 33.6761 23.6784 33.7914 23.9123 33.9068C24.1462 34.1376 24.1462 34.4837 24.1462 34.9452V42.9068C24.1462 43.7144 23.9123 43.7144 23.0938 43.8298V44.1759H26.7187V43.8298H26.8357Z" fill="#2C2C2C"/>
<path d="M40.8677 37.7149C41.3355 37.7149 41.5693 38.4072 42.037 38.4072C42.3879 38.4072 42.7386 38.1764 42.7386 37.7149C42.7386 37.138 42.154 36.9072 41.6862 36.9072C40.5169 36.9072 39.8152 37.8303 39.5814 38.4072V37.0226C38.8798 37.2533 37.9443 37.5995 37.2427 37.8303C37.8274 38.0611 38.0612 38.1764 38.0612 38.7533V42.9072C38.0612 43.7149 37.8274 43.7149 37.0088 43.8302V44.1764H40.7508V43.8302C39.8152 43.8302 39.5814 43.8302 39.5814 42.9072V39.7918C39.6984 38.5226 40.283 37.7149 40.8677 37.7149Z" fill="#2C2C2C"/>
<path d="M103.545 44.2918C105.065 44.2918 106.118 43.4841 106.702 42.2149L106.468 42.0995C106.001 42.9072 105.182 43.5995 104.129 43.5995C102.141 43.5995 101.674 41.9841 101.674 40.4841C101.674 39.2149 102.025 37.2533 103.779 37.2533C104.48 37.2533 105.182 37.7149 105.182 38.4072C105.182 38.8688 105.416 39.2149 105.883 39.2149C106.234 39.2149 106.585 38.9841 106.585 38.5226C106.585 37.4841 105.182 36.9072 103.779 36.9072C101.44 36.9072 100.037 38.5226 100.037 40.7149C99.9198 42.6764 101.323 44.2918 103.545 44.2918Z" fill="#2C2C2C"/>
<path d="M111.497 43.8298C110.795 43.8298 110.444 43.8298 110.444 42.9068V38.6375C110.912 38.176 111.263 37.5991 112.315 37.5991C113.368 37.5991 113.835 38.4068 113.835 39.4452V42.9068C113.835 43.7144 113.602 43.7144 112.9 43.8298V44.1759H116.525V43.8298C115.707 43.8298 115.472 43.8298 115.472 42.9068V39.676C115.472 37.3683 113.835 36.9068 112.9 36.9068C111.73 36.9068 111.146 37.3683 110.444 38.0607V32.7529C109.626 32.9837 108.69 33.3299 107.872 33.5606V33.6761C108.339 33.7914 108.807 33.9068 108.807 34.3684V42.7914C108.807 43.5991 108.573 43.5991 107.755 43.7144V44.0606H111.379V43.8298H111.497Z" fill="#2C2C2C"/>
<path d="M15.2586 36.9072C14.44 37.138 13.3876 37.4841 12.686 37.7149V37.8303C12.9199 37.8303 13.1538 37.8303 13.3876 37.9456C13.7384 38.1764 13.7384 38.6379 13.7384 38.9841V42.9072C13.7384 43.7149 13.5045 43.7149 12.686 43.8302V44.1764H16.311V43.8302C15.6094 43.8302 15.2586 43.8302 15.2586 42.9072V36.9072Z" fill="#2C2C2C"/>
<path d="M14.3241 35.6382C14.7921 35.6382 15.2601 35.1766 15.2601 34.7151C15.2601 34.2535 14.7921 33.792 14.3241 33.792C13.8562 33.792 13.3882 34.2535 13.3882 34.7151C13.3882 35.292 13.8562 35.6382 14.3241 35.6382Z" fill="#2C2C2C"/>
<path d="M32.3315 44.2918C34.0856 44.2918 35.138 43.1379 35.4887 42.2149L35.138 42.0995C34.6702 43.0226 33.6178 43.5995 32.7992 43.5995C30.9283 43.5995 30.2267 42.0995 30.2267 40.4841C30.2267 40.1379 30.2267 39.9072 30.3436 39.6764H35.3718C35.2549 37.8303 33.8517 36.9072 32.2146 36.9072C29.9928 36.9072 28.4727 38.5226 28.4727 40.7149C28.5896 42.9072 30.2267 44.2918 32.3315 44.2918ZM32.3315 37.3688C33.0331 37.3688 33.8517 38.0611 33.8517 39.2149H30.4605C30.8114 38.0611 31.5129 37.3688 32.3315 37.3688Z" fill="#2C2C2C"/>
<path d="M53.614 38.2916L56.4199 44.2916L55.8355 45.5609C55.7188 45.907 55.4846 46.3685 55.017 46.3685C54.7828 46.3685 54.666 46.2532 54.4325 46.2532C53.9642 46.2532 53.7307 46.4839 53.7307 46.9455C53.7307 47.2916 54.0816 47.6378 54.4325 47.6378C55.4846 47.6378 55.8355 46.7147 56.1865 45.907L59.4608 38.407C59.6943 37.9455 59.9284 37.3686 60.747 37.3686V37.0225H57.8236V37.3686C58.1738 37.3686 58.6422 37.3686 58.8757 37.7148C58.9924 37.9455 58.8757 38.407 58.7589 38.7532L57.2385 42.4455L55.4846 38.407C55.3679 38.1763 55.3679 37.9455 55.3679 37.8301C55.4846 37.484 55.8355 37.484 56.1865 37.484V37.1378H52.4443V37.484C53.146 37.484 53.3798 37.8301 53.614 38.2916Z" fill="#2C2C2C"/>
<path d="M65.1899 41.9845C65.1899 43.023 65.8918 44.2922 67.8799 44.2922C68.9319 44.2922 69.7505 43.8306 70.3349 43.1384L70.4523 43.2538C71.0367 43.8307 71.7386 44.2922 72.6739 44.2922C73.4925 44.2922 74.3111 43.4845 74.662 42.9076L74.4278 42.7922C74.0769 43.2538 73.6092 43.4845 73.2583 43.4845C72.4397 43.4845 71.8553 43.023 71.2709 42.4461C71.1535 42.3307 71.1535 42.2153 71.0367 42.2153C71.0367 42.0999 71.1535 41.9845 71.1535 41.9845C71.3877 41.6383 71.7386 40.9461 71.8553 40.4845C72.0895 39.7922 72.5572 38.9845 73.4925 38.9845V38.7538H70.8033V38.9845C71.2709 38.9845 71.6218 39.0999 71.6218 39.6769C71.6218 40.4845 71.1535 41.2922 70.92 41.7538C70.92 41.7538 70.8033 41.8692 70.8033 41.9845C70.1014 41.0615 69.2828 39.7922 68.6984 38.7538C69.517 38.1769 70.4523 37.4846 70.4523 36.6769C70.5691 35.7538 69.8672 35.0615 68.4643 35.0615C67.178 35.0615 66.3594 35.8692 66.3594 37.023C66.3594 37.4846 66.5936 38.0615 66.8271 38.523C66.9438 38.6384 67.0613 38.9845 67.2948 39.3307C66.4762 39.6769 65.1899 40.5999 65.1899 41.9845ZM68.581 35.2923C69.1661 35.2923 69.6338 35.6384 69.517 36.4461C69.517 37.023 69.2828 37.4846 68.4643 38.1769C68.3475 37.9461 68.2301 37.7154 68.1133 37.5999C67.7624 37.023 67.6457 36.6769 67.6457 36.2153C67.7624 35.8692 68.1133 35.2923 68.581 35.2923ZM67.6457 39.4461C68.2301 40.4845 69.1661 41.8692 69.9847 42.7922C69.517 43.2538 68.9319 43.5999 68.3475 43.5999C67.4115 43.5999 66.5936 42.9076 66.5936 41.7538C66.5936 40.8307 67.0613 40.023 67.6457 39.4461Z" fill="#2C2C2C"/>
</svg>
