<svg width="126" height="30" viewBox="0 0 126 30" fill="none" xmlns="http://www.w3.org/2000/svg">
<path fill-rule="evenodd" clip-rule="evenodd" d="M5.11061 0.862198C1.6005 0.93635 1.27078 0.989483 1.02656 1.52051C0.847532 1.91024 0.784598 6.48077 0.833241 15.5497C0.902696 28.476 0.924508 29.0169 1.39214 29.4148C1.79482 29.7576 3.77492 29.8291 12.8627 29.8291H23.8466L25.2946 29.0593C26.3746 28.485 26.948 27.942 27.552 26.9223C28.3542 25.5674 28.3614 25.5239 28.3567 22.0724C28.3517 18.3543 28.3657 18.4063 26.5524 15.4618C26.2948 15.0438 26.3498 14.8281 26.8861 14.1481C27.9244 12.8324 28.2993 11.4883 28.3349 8.95579C28.3797 5.75268 27.5829 2.82487 26.4912 2.18203C26.0717 1.93506 25.5539 1.55555 25.3405 1.33835C25.0356 1.02831 23.2351 0.926428 16.9408 0.862786C12.5343 0.81812 7.2108 0.817824 5.11061 0.862198ZM46.0714 0.856069L36.0744 0.934309L35.3616 1.6329C34.9694 2.01709 34.5597 2.37675 34.4511 2.43222C34.3426 2.48769 33.9434 2.97026 33.5643 3.5045C32.888 4.45679 32.8747 4.55108 32.8747 8.37718C32.8747 10.8758 32.973 12.3492 33.1478 12.4751C33.645 12.833 39.1335 12.7331 39.4537 12.3603C39.6169 12.1703 39.755 11.1949 39.7603 10.1933L39.7701 8.37192H47.0415H54.313L54.4384 10.5614L54.5637 12.7509L57.8233 12.6491C59.6161 12.593 61.1705 12.452 61.2773 12.3352C61.3841 12.2187 61.4969 10.8137 61.528 9.21327C61.5736 6.85619 61.5012 6.15526 61.1456 5.52322C60.9044 5.09437 60.7068 4.45824 60.7068 4.10967C60.7068 2.98135 58.4901 1.08261 56.9457 0.888177C56.4631 0.827455 51.5696 0.812863 46.0714 0.856069ZM76.6418 0.857815C68.8107 0.916202 66.3277 1.02013 66.1772 1.29572C65.8337 1.92571 65.9262 29.0747 66.2733 29.4788C66.4731 29.7114 67.5621 29.8291 69.5151 29.8291C71.8542 29.8291 72.5365 29.7351 72.8499 29.3705C73.1736 28.9933 73.2438 28.1157 73.2438 24.4388C73.2438 19.4304 73.1729 19.6114 75.1364 19.6114C76.265 19.6114 77.0974 20.2782 79.6648 23.2378C81.0804 24.87 84.5757 28.5104 84.994 28.7884C85.2199 28.9387 85.5539 29.2341 85.7359 29.4452C85.9789 29.7266 87.0275 29.8291 89.6647 29.8291C91.6431 29.8291 93.4404 29.7494 93.6585 29.6519C93.9105 29.5392 94.0482 29.1401 94.0356 28.5571C94.0193 27.7937 93.7205 27.3453 92.2559 25.888C91.2878 24.9246 90.2384 23.9726 89.9238 23.7723C89.6093 23.5724 88.8586 22.8685 88.2558 22.2087C87.6531 21.5487 86.9623 20.8028 86.7211 20.5508C86.003 19.8017 86.2048 19.6117 87.724 19.607C88.5171 19.6047 89.4479 19.4132 89.7926 19.1817C90.1374 18.9502 90.678 18.6249 90.9942 18.4588C91.3164 18.2895 91.8384 17.4826 92.1827 16.6217C92.7551 15.19 92.797 14.7618 92.8013 10.2695C92.8053 5.94448 92.7508 5.31741 92.2682 4.12748C91.5576 2.37675 89.8814 1.05925 88.1601 0.898396C87.472 0.834171 82.2887 0.816068 76.6418 0.857815ZM98.4431 0.92613L97.4402 1.07356V15.3783V29.6831H100.772C103.458 29.6831 104.151 29.5982 104.348 29.2452C104.491 28.9886 104.558 26.6628 104.51 23.6255C104.454 20.0951 104.513 18.4431 104.695 18.4416C104.842 18.4404 105.357 18.9017 105.84 19.4666C106.737 20.5161 108.65 22.458 110.585 24.2823C111.181 24.8443 111.852 25.545 112.076 25.8395C112.301 26.1341 113.309 27.1521 114.317 28.102L116.15 29.8291H120.743C125.934 29.8291 126.25 29.715 125.532 28.0985C125.313 27.6051 125.025 27.2017 124.892 27.2017C124.76 27.2017 124.035 26.5524 123.282 25.759C122.53 24.9655 121.601 24.0789 121.219 23.7884C120.837 23.4982 120.069 22.7617 119.513 22.1518C118.957 21.542 117.064 19.7054 115.305 18.0709C112.138 15.1261 111.597 14.2929 112.61 13.9187C112.886 13.8168 113.111 13.6232 113.111 13.4884C113.111 13.2624 114.123 12.3232 116.724 10.1358C118.766 8.41746 121.533 5.8899 122.556 4.80886C123.13 4.20135 123.862 3.63237 124.183 3.5442C124.819 3.36933 125.318 2.15985 125.067 1.39965C124.933 0.990359 124.343 0.927591 120.634 0.927591H116.356L115.047 2.06847C114.327 2.69584 113.287 3.67761 112.735 4.25039C111.51 5.52234 108.815 7.93343 108.617 7.93518C108.538 7.93606 107.743 8.72837 106.852 9.69614C105.96 10.6642 105.075 11.4188 104.885 11.3736C104.607 11.3076 104.54 10.3565 104.545 6.57536C104.549 3.39415 104.455 1.70997 104.255 1.40052C104.033 1.05517 103.402 0.921464 101.703 0.860158C100.462 0.815492 98.9948 0.844973 98.4431 0.92613ZM8.15734 7.45057C8.08613 7.66631 8.06156 8.81566 8.10243 10.005L8.1769 12.1671L14.4208 12.1081C17.8549 12.0757 20.766 11.9312 20.8902 11.7867C21.0143 11.6422 21.1381 10.7961 21.1655 9.90662C21.2036 8.6694 21.103 8.1445 20.7377 7.67361C20.2773 7.0804 20.0444 7.05821 14.2734 7.05821C9.49278 7.05821 8.2604 7.13733 8.15734 7.45057ZM73.5146 8.05167C73.3296 8.3112 73.2496 9.35048 73.296 10.8896L73.3692 13.3182L79.1961 13.3456C82.4008 13.3608 85.1595 13.275 85.3262 13.155C85.7281 12.866 85.8954 9.46288 85.5579 8.4449L85.2918 7.64208H79.5492C74.927 7.64208 73.7498 7.72208 73.5146 8.05167ZM33.042 18.0545C32.95 18.1614 32.8747 19.9941 32.8747 22.127C32.8747 25.9724 32.8813 26.0159 33.6448 27.3331C34.0683 28.0635 34.5587 28.6614 34.7347 28.6614C34.9108 28.6614 35.3149 28.9241 35.6329 29.2452C36.1915 29.8092 36.5709 29.8291 46.8422 29.8291C57.2614 29.8291 57.4941 29.8166 58.5259 29.1953C59.1049 28.847 59.7478 28.4719 59.9546 28.3624C60.1615 28.2527 60.4275 27.7823 60.5456 27.3173C60.6637 26.8522 60.9393 26.0366 61.1579 25.5044C61.6569 24.2899 61.6875 18.9697 61.1995 18.2851C60.9423 17.9246 60.3019 17.858 57.724 17.9243L54.5637 18.0058L54.4384 20.1953L54.313 22.3848L47.543 22.4668C43.8195 22.5118 40.512 22.4744 40.1931 22.3836C39.6507 22.2292 39.6176 22.0949 39.6863 20.3167C39.7415 18.8859 39.6678 18.3473 39.3887 18.1418C38.969 17.8326 33.2992 17.7547 33.042 18.0545ZM8.14756 18.573C8.08062 18.7765 8.05981 19.7831 8.10143 20.8098L8.1769 22.6767L14.489 22.7719C20.4488 22.8618 20.8152 22.8367 21.0526 22.3203C21.3412 21.6923 21.3071 19.0652 21.003 18.5067C20.7091 17.9666 8.32659 18.0306 8.14756 18.573Z" fill="#2C2C2C"/>
</svg>
