<svg width="65" height="58" viewBox="0 0 65 58" fill="none" xmlns="http://www.w3.org/2000/svg">
<path fill-rule="evenodd" clip-rule="evenodd" d="M32.4193 0.692664L20.7504 0.700218L20.6976 0.780956C20.6487 0.855543 20.6443 0.989191 20.6392 2.53438C20.6354 3.67481 20.6437 4.21914 20.6652 4.24511C20.6905 4.27566 21.6301 4.28327 25.428 4.28363C28.1108 4.2839 30.1773 4.29552 30.2009 4.31045C30.2364 4.33293 30.2415 6.11431 30.2362 16.4119C30.2299 28.4042 30.2303 28.4876 30.2889 28.5601L30.3479 28.633H32.3772C33.7989 28.633 34.4163 28.6233 34.439 28.6006C34.4623 28.5773 34.4713 25.1478 34.4709 16.4779C34.4706 8.95707 34.4811 4.37076 34.4986 4.3429C34.5234 4.30346 35.1036 4.29713 39.3739 4.28996C44.1735 4.28187 44.2214 4.28121 44.2527 4.22254C44.2743 4.1822 44.2817 3.62769 44.2758 2.48395C44.2668 0.729181 44.2616 0.659938 44.1394 0.677704C44.1112 0.681795 38.8372 0.688513 32.4193 0.692664ZM0.602654 32.085C0.541152 32.095 0.478517 32.1219 0.463454 32.1447C0.430377 32.1949 0.44356 33.986 0.477532 34.0569C0.490537 34.0841 0.530444 34.1141 0.566206 34.1237C0.601998 34.1333 14.9675 34.1414 32.4896 34.1416C62.0777 34.142 64.3508 34.1385 64.3888 34.0927C64.4483 34.021 64.4673 32.2109 64.4094 32.134C64.372 32.0842 62.8191 32.0813 32.5423 32.0742C15.037 32.0701 0.664186 32.075 0.602654 32.085ZM48.8902 37.7868C48.0931 37.895 47.1091 38.1794 46.4892 38.4807C45.5966 38.9146 45.1231 39.3084 44.4408 40.1843C44.1698 40.5322 43.8853 41.1888 43.7613 41.7525C43.7347 41.8737 43.6929 42.0209 43.6684 42.0794C43.6159 42.2051 43.5921 42.5577 43.5943 43.1737C43.5961 43.6615 43.6049 43.7425 43.6851 44.0103C43.7147 44.1089 43.7676 44.3171 43.8028 44.4731C43.8768 44.8015 44.0742 45.2847 44.2266 45.5107C44.6055 46.0728 45.3518 46.8077 45.9524 47.21C46.3271 47.461 47.2239 47.944 47.6077 48.1016C47.7389 48.1555 47.9403 48.239 48.0551 48.2872C48.1699 48.3355 48.378 48.4124 48.5174 48.4582C48.6569 48.504 48.9119 48.6057 49.0841 48.6844C49.2564 48.7629 49.5771 48.9093 49.7969 49.0095C50.2271 49.2057 50.9009 49.6315 51.2376 49.9199C51.4138 50.0708 51.8236 50.5637 51.9099 50.7285C51.9849 50.8718 52.1642 51.3929 52.2059 51.5891C52.2597 51.8415 52.2785 52.4328 52.2423 52.7291C52.1888 53.1667 51.9478 53.8031 51.7515 54.025C51.6847 54.1005 51.5887 54.2228 51.5381 54.2967C51.4141 54.4778 51.2937 54.587 50.993 54.7912C50.5558 55.0881 50.1289 55.2627 49.4569 55.4192C49.1096 55.5001 49.0749 55.5025 48.2788 55.5006C47.5288 55.4987 47.4215 55.4918 47.0261 55.4203C46.5591 55.3358 45.9259 55.176 45.5841 55.0565C45.0523 54.8705 44.2723 54.5183 44.1447 54.4065C43.968 54.2516 43.9028 54.2646 43.7976 54.4758C43.7526 54.5662 43.6675 54.7946 43.6085 54.9834C43.5495 55.1723 43.4637 55.441 43.4179 55.5806C43.3089 55.9125 43.2083 56.282 43.2083 56.3502C43.2083 56.4442 43.4225 56.6149 43.6856 56.7306C44.4161 57.0517 44.6542 57.1312 45.4602 57.3234C46.4528 57.5601 46.741 57.6078 47.407 57.6454C47.7471 57.6647 48.079 57.6782 48.1446 57.6754C49.3322 57.6261 49.4697 57.6143 49.9193 57.5226C50.1735 57.4708 50.4889 57.3963 50.6202 57.3571C51.6124 57.0606 51.5852 57.0715 52.2159 56.7206C52.6923 56.4556 52.9836 56.2401 53.3748 55.8635C53.6945 55.5556 53.81 55.4089 54.1619 54.864C54.3673 54.5459 54.4268 54.4224 54.5645 54.0279C54.7412 53.5221 54.8045 53.2386 54.899 52.5318L54.9612 52.0658L54.899 51.5618C54.819 50.9138 54.7808 50.7372 54.6127 50.241C54.4661 49.8079 54.3968 49.6491 54.2913 49.5043C54.2554 49.4551 54.1678 49.3207 54.0966 49.2057C53.8648 48.8313 53.4369 48.3581 53.051 48.0493C52.2894 47.4399 51.0623 46.7772 50.0236 46.4143C49.7776 46.3283 49.5226 46.2267 49.4569 46.1886C49.3913 46.1504 49.1674 46.045 48.9593 45.9543C47.7914 45.4454 47.1871 45.0303 46.7093 44.4087C46.4235 44.0369 46.2918 43.6638 46.2187 43.0192C46.1757 42.6398 46.1949 42.475 46.3443 41.9408C46.4524 41.5545 46.5236 41.4164 46.7781 41.1007C47.2105 40.5642 47.8993 40.172 48.7113 39.9998C49.0353 39.9311 49.137 39.9237 49.785 39.9218C50.3927 39.92 50.5638 39.9299 50.9174 39.9872C51.618 40.1007 52.203 40.2761 52.7677 40.542C53.0934 40.6953 53.1816 40.7246 53.3192 40.7252L53.483 40.7258L53.5193 40.6064C53.5392 40.5407 53.6702 40.1428 53.8103 39.7222C53.9505 39.3015 54.0651 38.9115 54.0651 38.8554C54.0651 38.7994 54.0441 38.7234 54.0183 38.6866C53.9192 38.5451 53.3657 38.3212 52.6229 38.1224C51.5198 37.827 50.9618 37.7535 49.865 37.7587C49.4273 37.7608 48.9887 37.7734 48.8902 37.7868ZM14.2917 38.0132C13.7599 38.0749 13.416 38.1077 12.9346 38.1424C12.3252 38.1865 11.6362 38.2556 11.4451 38.292C11.2886 38.3217 11.1454 38.3898 11.1447 38.4349C11.1445 38.4468 11.1437 42.6812 11.1429 47.8446C11.1417 56.8612 11.1437 57.2348 11.1955 57.2855C11.2397 57.3288 11.3568 57.3466 11.846 57.3841C12.7476 57.4533 13.42 57.4901 14.1126 57.5081C14.457 57.5171 14.7993 57.538 14.8732 57.5546C15.0422 57.5926 16.0529 57.59 16.2909 57.551C16.3888 57.5349 16.5676 57.5217 16.6882 57.5216C16.9858 57.5214 18.0314 57.4149 18.4525 57.342C18.6411 57.3093 19.0035 57.2494 19.2578 57.209C19.745 57.1315 20.1831 57.0157 20.8237 56.795C21.7365 56.4806 22.2784 56.2271 22.8741 55.8359C23.0503 55.7201 23.2718 55.5754 23.3662 55.5144C23.6434 55.3352 24.3039 54.7403 24.5413 54.4561C24.662 54.3115 24.7966 54.1625 24.8403 54.125C24.9234 54.0537 25.2889 53.5147 25.4617 53.2088C25.5168 53.1113 25.607 52.9635 25.6622 52.8804C25.8632 52.5776 26.1403 51.9516 26.3865 51.244C26.614 50.59 26.6984 50.2446 26.7878 49.6013C26.8283 49.3098 26.8748 49.0462 26.8912 49.0157C27.0121 48.7896 27.0128 45.8509 26.8921 45.563C26.8525 45.4685 26.7816 45.1043 26.7592 44.8801C26.7367 44.6554 26.5632 43.9396 26.4884 43.763C26.4625 43.702 26.3903 43.5176 26.3278 43.3534C26.1427 42.867 25.8597 42.2754 25.6993 42.0396C25.6546 41.9739 25.5443 41.806 25.4542 41.6664C25.3642 41.5268 25.2594 41.3803 25.2214 41.3407C25.1834 41.3012 25.107 41.2028 25.0515 41.122C24.8904 40.8877 24.2265 40.2444 23.8105 39.9197C23.2741 39.501 23.0067 39.3416 22.2496 38.9895C21.3029 38.5492 20.4352 38.3025 19.3324 38.1601C19.0043 38.1177 18.662 38.07 18.5718 38.0539C18.1628 37.9813 17.6959 37.9641 16.2218 37.9678C15.0937 37.9706 14.5485 37.9835 14.2917 38.0132ZM35.1215 38.1045C31.036 38.1118 30.1757 38.1203 30.1482 38.1534C30.102 38.2091 30.0993 57.309 30.1454 57.3553C30.1676 57.3775 31.7907 57.3894 35.5235 57.3948C40.1147 57.4014 40.878 57.3965 40.9281 57.3599C40.9833 57.3195 40.9867 57.2697 40.9953 56.3967C41.0041 55.4984 40.9971 55.339 40.9451 55.257C40.9242 55.2238 40.2262 55.2176 36.8817 55.2209C33.382 55.2243 32.8357 55.219 32.784 55.1812C32.725 55.138 32.7244 55.1024 32.7244 51.8182V48.4988L32.7939 48.4424C32.8614 48.3877 32.9732 48.3862 36.449 48.3928C39.8375 48.3992 40.0389 48.3966 40.1152 48.3466L40.1959 48.2937V47.3226V46.3515L40.1227 46.2782C40.0659 46.2214 40.0173 46.2046 39.9064 46.2035C39.8278 46.2028 38.1985 46.2034 36.2859 46.2049C33.0487 46.2075 32.8056 46.2041 32.7664 46.1569C32.731 46.1142 32.723 45.6543 32.7159 43.2453C32.7075 40.403 32.7079 40.3841 32.7681 40.3237C32.8285 40.2633 32.8476 40.263 36.6558 40.263C39.6707 40.263 40.4934 40.2551 40.5329 40.2257C40.5778 40.1923 40.5842 40.0845 40.5936 39.2058C40.6034 38.2833 40.6006 38.2198 40.5491 38.1682C40.5154 38.1345 40.4508 38.1131 40.3823 38.1129C40.3208 38.1127 40.2235 38.1088 40.166 38.1041C40.1086 38.0994 37.8386 38.0996 35.1215 38.1045ZM15.6637 39.9993C14.7126 40.0672 13.8312 40.1896 13.7569 40.2639C13.7344 40.2864 13.725 42.5034 13.725 47.7729C13.725 54.5701 13.7293 55.2543 13.7725 55.2975C13.8017 55.3268 13.9392 55.363 14.1304 55.3917C14.5458 55.454 16.9066 55.4838 17.3042 55.4317C18.5494 55.2685 19.1408 55.1296 19.914 54.8187C20.5717 54.5542 20.6588 54.5088 21.2284 54.132C21.64 53.8598 21.7853 53.742 22.136 53.3965C22.5838 52.9553 22.697 52.8171 23.0167 52.3205C23.4245 51.6869 23.7265 51.018 23.8655 50.4404C23.9076 50.2655 23.9747 50.0262 24.0146 49.9087C24.1279 49.5753 24.1718 49.2852 24.2452 48.3846C24.3422 47.1947 24.232 45.5237 24.0192 44.9583C23.9652 44.8146 23.8757 44.5358 23.8203 44.3388C23.5777 43.475 22.777 42.2493 22.1016 41.7078C21.5065 41.2307 20.939 40.8994 20.2453 40.6244C19.5457 40.347 19.417 40.3086 18.8378 40.2043C17.6608 39.9924 16.6628 39.9279 15.6637 39.9993Z" fill="#2C2C2C"/>
</svg>
